<svg id="Слой_1" data-name="Слой 1" xmlns="http://www.w3.org/2000/svg" viewBox="0 0 512 490.67"><defs><style>.cls-1{fill:#f0918b;}</style></defs><title>message</title><path class="cls-1" d="M373.33,512a10.69,10.69,0,0,1-6.38-2.11c-5.42-4-132.29-99.63-132.29-176.45A77.48,77.48,0,0,1,373.33,286,77.48,77.48,0,0,1,512,333.44c0,76.82-126.87,172.42-132.29,176.45A10.69,10.69,0,0,1,373.33,512ZM312.13,277.33A56.19,56.19,0,0,0,256,333.44c0,51.84,79.42,124.78,117.33,154.45,37.89-29.7,117.33-102.66,117.33-154.45A56.11,56.11,0,0,0,383.13,311c-3.41,7.79-16.17,7.79-19.58,0a56,56,0,0,0-51.41-33.66Z" transform="translate(0 -21.33)"/><path class="cls-1" d="M202.67,320h-160A42.71,42.71,0,0,1,0,277.33V64A42.71,42.71,0,0,1,42.67,21.33h384A42.71,42.71,0,0,1,469.33,64V202.67a10.67,10.67,0,1,1-21.33,0V64a21.35,21.35,0,0,0-21.33-21.33h-384A21.35,21.35,0,0,0,21.33,64V277.33a21.35,21.35,0,0,0,21.33,21.33h160a10.67,10.67,0,1,1,0,21.33Z" transform="translate(0 -21.33)"/><path class="cls-1" d="M234.67,204.33A51.39,51.39,0,0,1,211.93,199L5.93,97A10.67,10.67,0,0,1,15.4,77.91l206,102a30.15,30.15,0,0,0,26.58,0l206-102A10.67,10.67,0,0,1,463.38,97l-206,102a51.39,51.39,0,0,1-22.74,5.29Z" transform="translate(0 -21.33)"/></svg>