<svg id="Capa_1" data-name="Capa 1" xmlns="http://www.w3.org/2000/svg" viewBox="0 0 512 420"><defs><style>.cls-1{fill:#f0918b;}</style></defs><title>money</title><path class="cls-1" d="M256,386a10,10,0,1,0,10,10A10,10,0,0,0,256,386Z" transform="translate(0 -46)"/><path class="cls-1" d="M469.09,61.37C444.48,51.46,412.48,46,379,46s-65.48,5.46-90.09,15.37c-14.54,5.86-25.64,13-32.91,21-7.27-8-18.37-15.19-32.91-21C198.48,51.46,166.49,46,133,46S67.52,51.46,42.91,61.37C15.24,72.52,0,88.37,0,106V346c0,17.63,15.24,33.48,42.91,44.63,22.89,9.22,52.17,14.58,83.09,15.28V406c0,34.21,55.89,60,130,60s130-25.79,130-60v-.09c30.92-.71,60.2-6.07,83.09-15.28C496.76,379.48,512,363.63,512,346V106C512,88.37,496.76,72.52,469.09,61.37ZM492,286c0,8.54-11.64,18.53-30.39,26.08-20.29,8.17-47.52,13.11-75.61,13.82V286s0-.06,0-.09c30.92-.7,60.2-6.07,83.09-15.28A108.89,108.89,0,0,0,492,258.39V286ZM246,166c0,8.54-11.64,18.53-30.38,26.08C193.65,200.93,163.54,206,133,206s-60.65-5.07-82.61-13.92C31.64,184.53,20,174.54,20,166V138.39a108.89,108.89,0,0,0,22.91,12.24C67.52,160.54,99.51,166,133,166s65.48-5.46,90.09-15.37A108.89,108.89,0,0,0,246,138.39ZM42.91,210.63C67.52,220.54,99.51,226,133,226s65.48-5.46,90.09-15.37A108.89,108.89,0,0,0,246,198.39v27.79c-25.87.88-50.68,5.12-70.75,12.19S140.64,254.91,132.77,266c-30.46,0-60.47-5.09-82.38-13.92C31.64,244.53,20,234.54,20,226V198.39A108.89,108.89,0,0,0,42.91,210.63ZM20,258.39a108.89,108.89,0,0,0,22.91,12.24c22.89,9.22,52.17,14.58,83.09,15.28,0,0,0,.06,0,.09v39.9c-28.1-.71-55.33-5.65-75.61-13.82C31.64,304.53,20,294.54,20,286Zm127.06,22.7C154.47,263.84,197.24,246,256,246s101.53,17.84,108.93,35.07A12.37,12.37,0,0,1,366,286c0,8.79-10.84,18.56-29,26.12C315.53,321.07,286.76,326,256,326s-59.53-4.93-81-13.88c-18.16-7.56-29-17.33-29-26.12A12.35,12.35,0,0,1,147.06,281.09ZM492,226c0,8.54-11.64,18.53-30.39,26.08C439.7,260.9,409.69,266,379.24,266c-7.87-11.08-22.36-20.54-42.49-27.63S291.87,227.05,266,226.18V198.39a108.89,108.89,0,0,0,22.91,12.24C313.52,220.54,345.52,226,379,226s65.48-5.46,90.09-15.37A108.89,108.89,0,0,0,492,198.39Zm0-60c0,8.54-11.64,18.53-30.39,26.08C439.65,200.93,409.54,206,379,206s-60.65-5.07-82.61-13.92C277.64,184.53,266,174.54,266,166V138.39a108.89,108.89,0,0,0,22.91,12.24C313.52,160.54,345.52,166,379,166s65.48-5.46,90.09-15.37A108.89,108.89,0,0,0,492,138.39ZM296.39,79.92C318.35,71.07,348.46,66,379,66s60.65,5.07,82.61,13.92C480.36,87.47,492,97.46,492,106s-11.64,18.53-30.39,26.08C439.65,140.93,409.54,146,379,146s-60.65-5.07-82.61-13.92C277.64,124.53,266,114.54,266,106S277.64,87.47,296.39,79.92Zm-246,0C72.35,71.07,102.46,66,133,66s60.65,5.07,82.61,13.92C234.36,87.47,246,97.46,246,106s-11.64,18.53-30.38,26.08C193.65,140.93,163.54,146,133,146s-60.65-5.07-82.61-13.92C31.64,124.53,20,114.54,20,106S31.64,87.47,50.38,79.92Zm0,292.16C31.64,364.53,20,354.54,20,346V318.39a108.89,108.89,0,0,0,22.91,12.24c22.89,9.22,52.17,14.58,83.09,15.28v40C97.9,385.19,70.67,380.25,50.38,372.08Zm286.62,60C315.53,441.07,286.76,446,256,446s-59.53-4.93-81-13.88c-18.16-7.56-29-17.33-29-26.12V379a88.1,88.1,0,0,0,7.54,4.87c15.53,9,36.66,15.63,61.1,19.22a10.12,10.12,0,0,0,1.46.11,10,10,0,0,0,1.44-19.9C171.08,376.45,146,359,146,346V318.88C168.63,335.44,208.59,346,256,346s87.37-10.56,110-27.12V346c0,13-25.08,30.45-71.55,37.28a10,10,0,0,0,1.44,19.9,10.12,10.12,0,0,0,1.46-.11c24.45-3.59,45.57-10.23,61.1-19.22A88.26,88.26,0,0,0,366,379v27C366,414.79,355.16,424.56,337,432.12Zm124.61-60c-20.29,8.17-47.52,13.11-75.61,13.82v-40c30.92-.71,60.2-6.07,83.09-15.28A108.89,108.89,0,0,0,492,318.39V346C492,354.54,480.36,364.53,461.61,372.08Z" transform="translate(0 -46)"/></svg>