<svg id="Capa_1" data-name="Capa 1" xmlns="http://www.w3.org/2000/svg" viewBox="0 0 512 512"><defs><style>.cls-1{fill:#f0918b;}</style></defs><title>photo</title><path class="cls-1" d="M476.8,0H35.17A35.21,35.21,0,0,0,0,35.17V476.8A35.22,35.22,0,0,0,35.17,512H476.8A35.24,35.24,0,0,0,512,476.8V35.17A35.22,35.22,0,0,0,476.8,0ZM492,476.8A15.22,15.22,0,0,1,476.8,492H35.17A15.2,15.2,0,0,1,20,476.8V35.17A15.19,15.19,0,0,1,35.17,20H476.8A15.2,15.2,0,0,1,492,35.17Z" transform="translate(0 0)"/><path class="cls-1" d="M447.75,54.25H64.25a10,10,0,0,0-10,10v118.4a10,10,0,0,0,20,0V74.25H437.75V384.54H74.25V272.45a10,10,0,0,0-20,0V394.54a10,10,0,0,0,10,10H447.75a10,10,0,0,0,10-10V64.25A10,10,0,0,0,447.75,54.25Z" transform="translate(0 0)"/><path class="cls-1" d="M341.84,135.57c-12.79-13.25-30.33-20.11-49.4-19.35a76.68,76.68,0,0,0-49.05,20.84l-.89.84c-.95.89-2,1.83-2.84,2.64-.89-.81-1.9-1.75-2.84-2.64l-.9-.85a76.67,76.67,0,0,0-49-20.82c-19.06-.76-36.61,6.09-49.42,19.35-29.86,31-29.86,81.34,0,112.3l.26.26,95,91.67a10,10,0,0,0,13.89,0l33.6-32.42,33.58,32.42a10,10,0,0,0,13.89,0l54.88-53,.25-.25c18.81-19.48,18.81-51.21,0-70.73a40.48,40.48,0,0,0-19.54-11.23A80.85,80.85,0,0,0,341.84,135.57ZM239.66,318.71l-87.94-84.84c-22.36-23.32-22.32-61.15.11-84.4,17.8-18.42,49.4-17.43,70.41,2.19l.88.82c6.11,5.74,10.15,9.53,16.54,9.53s10.42-3.79,16.54-9.53l.86-.81c21-19.64,52.61-20.63,70.4-2.2a61,61,0,0,1,15.51,55,49,49,0,0,0-22.22,11.46,48.43,48.43,0,0,0-30.31-12.51,41.13,41.13,0,0,0-31.75,12.46c-18.81,19.51-18.8,51.24,0,70.72l.25.25,6.87,6.63Zm128.87-46.12-47.8,46.12L273,272.59a31.19,31.19,0,0,1,.11-42.82c9.73-10.07,25.61-7.1,34.75,1.44l.52.48c3.79,3.54,7.07,6.6,12.41,6.6s8.62-3.06,12.41-6.6l.52-.49c9.13-8.53,25-11.5,34.73-1.44a31.2,31.2,0,0,1,.12,42.83Z" transform="translate(0 0)"/><path class="cls-1" d="M256,438.26a10,10,0,0,0,0,20H256a10,10,0,1,0-.06-20Z" transform="translate(0 0)"/><path class="cls-1" d="M211.09,438.26h-75a10,10,0,1,0,0,20h75a10,10,0,1,0,0-20Z" transform="translate(0 0)"/><path class="cls-1" d="M375.89,438.26h-75a10,10,0,0,0,0,20h75a10,10,0,0,0,0-20Z" transform="translate(0 0)"/><path class="cls-1" d="M64.25,237.57a10,10,0,1,0-10-10v0A10,10,0,0,0,64.25,237.57Z" transform="translate(0 0)"/></svg>