<svg id="Capa_1" data-name="Capa 1" xmlns="http://www.w3.org/2000/svg" viewBox="0 0 384 512"><defs><style>.cls-1{fill:#f0918b;}</style></defs><title>fire</title><path class="cls-1" d="M446.91,299.77c-5.86-76.36-41.42-124.21-72.78-166.44C345.08,94.24,320,60.48,320,10.68a10.68,10.68,0,0,0-5.79-9.49A10.57,10.57,0,0,0,303.13,2C256,35.71,216.72,92.52,203,146.73c-9.53,37.74-10.79,80.16-11,108.18-43.5-9.29-53.35-74.36-53.46-75.07a10.67,10.67,0,0,0-15.22-8.09c-2.28,1.1-56,28.39-59.11,137.35C64,312.73,64,316.36,64,320c0,105.86,86.14,192,192,192a1.49,1.49,0,0,0,.43,0h.14C362.17,511.68,448,425.67,448,320,448,314.67,446.91,299.77,446.91,299.77ZM256,490.65c-35.29,0-64-30.58-64-68.17,0-1.28,0-2.57.08-4.16.43-15.85,3.44-26.67,6.74-33.87C205,397.74,216.07,410,234,410a10.66,10.66,0,0,0,10.67-10.67c0-15.19.31-32.71,4.09-48.52,3.37-14,11.41-28.94,21.59-40.89,4.53,15.52,13.36,28.08,22,40.34,12.34,17.54,25.1,35.67,27.34,66.6.14,1.83.27,3.68.27,5.66C320,460.07,291.29,490.65,256,490.65Z" transform="translate(-64 0)"/></svg>