<svg id="Layer_1" data-name="Layer 1" xmlns="http://www.w3.org/2000/svg" viewBox="0 0 384 512.02"><defs><style>.cls-1{fill:#42978a;}</style></defs><title>fire (1)</title><path class="cls-1" d="M447.28,304.8l-.36-5c-5.86-76.35-41.42-124.22-72.78-166.44C345.09,94.26,320,60.5,320,10.68a10.68,10.68,0,0,0-5.79-9.49A10.56,10.56,0,0,0,303.13,2C256,35.72,216.73,92.53,203,146.74c-9.53,37.74-10.79,80.17-11,108.19-43.5-9.29-53.35-74.36-53.46-75.07a10.67,10.67,0,0,0-15.22-8.09c-2.28,1.1-56,28.4-59.11,137.38C64,312.76,64,316.38,64,320c0,105.86,86.14,192,192,192s192-86.14,192-192C448,314.71,447.64,309.75,447.28,304.8ZM256,490.68c-35.29,0-64-30.58-64-68.18,0-1.28,0-2.57.08-4.16.43-15.85,3.44-26.68,6.74-33.87C205,397.77,216.09,410,234.05,410a10.66,10.66,0,0,0,10.67-10.67c0-15.19.31-32.71,4.09-48.52,3.37-14,11.41-28.94,21.59-40.9,4.53,15.52,13.36,28.08,22,40.34,12.34,17.54,25.1,35.68,27.34,66.6.14,1.83.27,3.68.27,5.66C320,460.1,291.3,490.68,256,490.68Zm67.41-13.94a91.4,91.4,0,0,0,17.92-54.24c0-2.51-.16-4.84-.47-9.21-2.53-34.82-17.67-56.34-31-75.33-11.39-16.17-21.21-30.14-21.21-49.95a10.66,10.66,0,0,0-17.09-8.51C251.08,295,234,321,228.06,345.83c-3,12.74-4.1,26.52-4.48,37.85-7.4-8-9.69-22.71-9.71-22.91a10.69,10.69,0,0,0-15.44-8.05c-2.69,1.38-26.3,14.92-27.66,64.73-.09,1.69-.1,3.38-.1,5.05a91.4,91.4,0,0,0,17.92,54.24C127.94,450.55,85.34,390.19,85.34,320c0-3.2,0-6.39.21-9.94,1.83-63.94,22.29-95.65,35.65-109.64,9.31,33.33,33.71,76.91,81.48,76.91a10.66,10.66,0,0,0,10.67-10.67c0-35.7.8-76.95,10.34-114.72C234.52,109.17,264.2,63,300,31.69c5.95,45.69,30.83,79.19,57,114.39,31.09,41.85,63.24,85.14,68.63,155.22l.36,5.1c.33,4.44.68,8.86.68,13.63C426.68,390.18,384.08,450.55,323.42,476.75Z" transform="translate(-64.01 0)"/></svg>