<svg id="Capa_1" data-name="Capa 1" xmlns="http://www.w3.org/2000/svg" viewBox="0 0 512 511.69"><defs><style>.cls-1{fill:#f0918b;}</style></defs><title>repair-tools</title><path class="cls-1" d="M481.55,333a105,105,0,0,0-109.17-24.37l-21-22.72c-.49.83-1.36,1.33-1.67,2.27-4.5,13.52-8.68,31-18.68,41L299.19,361l9.58,11.26A104.91,104.91,0,0,0,333.15,481.4c31.2,31.2,79.08,39.28,119.15,20.25a15,15,0,0,0,4.16-24.14L418,439a15,15,0,1,1,21.2-21.2l38.5,38.5a15,15,0,0,0,24.14-4.16C520.85,412,512.72,364.16,481.55,333Z" transform="translate(0 -0.15)"/><path class="cls-1" d="M203.23,139.8A104.39,104.39,0,0,0,59.7,10.37a15,15,0,0,0-4.16,24.14L94,73a15,15,0,0,1-21.2,21.21L34.35,55.71a15,15,0,0,0-24.14,4.16C-8.86,100-.72,147.85,30.45,179a104.91,104.91,0,0,0,109.18,24.38l11.18,9.18,31.79-31.8c10.07-10.07,27-14,41-18.68.93-.31,1.44-1.18,2.27-1.66Z" transform="translate(0 -0.15)"/><path class="cls-1" d="M498.47,55.69l-42.4-42.4c-17-17-46.64-17-63.59,0L267.39,138.38A15.12,15.12,0,0,0,263,149v0a43.69,43.69,0,0,1-29.92,41.52l-23.42,7.8a40.27,40.27,0,0,0-5.85,3.63l-42.4,42.41a15,15,0,0,0,0,21.2l84.79,84.79a15,15,0,0,0,21.2,0L309.8,308a17.71,17.71,0,0,0,3.63-5.86l7.8-23.42a43.72,43.72,0,0,1,41.56-29.92,15.07,15.07,0,0,0,10.6-4.39L498.47,119.3A45,45,0,0,0,498.47,55.69Z" transform="translate(0 -0.15)"/><path class="cls-1" d="M150.8,297.38,57.4,390.85l-1.6,1.89-53,74.21a15,15,0,0,0,1.6,19.31l21.2,21.2A15,15,0,0,0,44.9,509l74.21-53,1.89-1.6L214.39,361Zm-113,179.9L34.56,474l35.35-49.47,17.36,17.36Z" transform="translate(0 -0.15)"/></svg>