<svg width="302" height="306" viewBox="0 0 302 306" fill="none" xmlns="http://www.w3.org/2000/svg">
<path d="M204.068 71.5339C204.068 66.0207 199.602 61.5239 194.058 61.5239H52.9944C47.4812 61.5239 42.9844 65.9899 42.9844 71.5339C42.9844 77.0471 47.4812 81.5439 52.9944 81.5439H194.058C199.572 81.5439 204.068 77.0779 204.068 71.5339Z" fill="#f0908a"/>
<path d="M297.362 238.562L255.905 211.704C258.307 204.867 259.693 197.567 259.693 189.929C259.693 153.739 230.248 124.294 194.058 124.294C157.868 124.294 128.424 153.739 128.424 189.929C128.424 226.119 157.868 255.564 194.058 255.564C215.434 255.564 234.376 245.246 246.388 229.384L286.489 255.348C288.183 256.426 290.062 256.95 291.91 256.95C295.206 256.95 298.409 255.348 300.318 252.391C303.306 247.771 301.982 241.58 297.362 238.562ZM194.058 235.544C168.895 235.544 148.444 215.092 148.444 189.929C148.444 164.765 168.895 144.314 194.058 144.314C219.222 144.314 239.673 164.765 239.673 189.929C239.673 215.062 219.191 235.544 194.058 235.544Z" fill="#f0908a"/>
<path d="M42.9844 172.465C42.9844 178.009 47.4812 182.475 52.9944 182.475H115.426C116.073 175.514 117.644 168.8 119.984 162.455H52.9944C47.4812 162.455 42.9844 166.952 42.9844 172.465Z" fill="#f0908a"/>
<path d="M181.184 112.005H52.9944C47.4812 112.005 42.9844 116.502 42.9844 122.015C42.9844 127.528 47.4812 132.025 52.9944 132.025H140.405C151.524 121.707 165.568 114.561 181.184 112.005Z" fill="#f0908a"/>
<path d="M226.953 267.175C226.953 277.308 218.729 285.532 208.596 285.532H38.4568C28.3236 285.532 20.1 277.308 20.1 267.175V38.8241C20.1 28.6909 28.3544 20.4673 38.4568 20.4673H208.596C218.729 20.4673 226.953 28.6909 226.953 38.8241V118.134C234.283 121.522 241.059 125.957 246.973 131.316V38.8241C246.973 17.6645 229.756 0.447266 208.596 0.447266H38.4568C17.2972 0.447266 0.0799561 17.6645 0.0799561 38.8241V267.175C0.0799561 288.335 17.2972 305.552 38.4568 305.552H208.596C229.756 305.552 246.973 288.335 246.973 267.175V248.48C241.059 253.839 234.283 258.305 226.953 261.662V267.175Z" fill="#f0908a"/>
</svg>
