<svg id="regular" xmlns="http://www.w3.org/2000/svg" viewBox="0 0 511.99 448.06"><defs><style>.cls-1{fill:#2ca6e1;}</style></defs><title>telegram</title><path class="cls-1" d="M8.85,238.85l125.21,62.4a16,16,0,0,0,15.19-.49L260.69,236l-67.46,59.78a16,16,0,0,0-5.4,12v145.6c0,15.36,19.61,21.82,28.8,9.62l54.12-72,133.85,76.22a16,16,0,0,0,23.59-10.75l83.48-416c2.5-12.5-9.94-22.7-21.5-18l-480,187.2c-12.89,5-13.72,23.06-1.32,29.23Zm465.71-176L401.19,428.46,274.37,356.22a16,16,0,0,0-20.71,4.29l-33.81,44.95V314.92L402.26,153.3c14.44-12.78-2.15-35.5-18.65-25.81l-243,141.27L55.47,226.33Z" transform="translate(-0.02 -21.28)"/></svg>