<svg id="Слой_1" data-name="Слой 1" xmlns="http://www.w3.org/2000/svg" viewBox="0 0 466 276.56"><defs><style>.cls-1{fill:#f0918b;}</style></defs><title>video</title><path class="cls-1" d="M323,124.29a28,28,0,0,0-28-28H28a28,28,0,0,0-28,28v216a28,28,0,0,0,28,28H295a28,28,0,0,0,28-28Zm-16,216a12,12,0,0,1-12,12H28a12,12,0,0,1-12-12v-216a12,12,0,0,1,12-12H295a12,12,0,0,1,12,12Z" transform="translate(0 -95)"/><path class="cls-1" d="M462,96a7.83,7.83,0,0,0-8.05.27L341.6,168a7.9,7.9,0,0,0-3.6,6.74V277.25a8,8,0,0,0,3.07,6.35l112.46,86.32a7.94,7.94,0,0,0,4.86,1.65,7.18,7.18,0,0,0,3.34-.82,7.83,7.83,0,0,0,4.27-7.18V103A7.83,7.83,0,0,0,462,96ZM450,347.34l-96-74V179.16l96-61.56Z" transform="translate(0 -95)"/><path class="cls-1" d="M168.44,297.68l.42.15a12.06,12.06,0,0,0,8.26,0l.48-.18c53.93-21.85,72.11-62.32,66.21-92.73v-.05c-4.48-22.2-20.7-36.54-41.32-36.54-9.48,0-19.56,3.22-29.41,9.36-10-6.43-19.94-9.68-29.71-9.68-20.76,0-36.93,14.5-41.18,36.93C96.28,235.68,114.49,276.27,168.44,297.68ZM117.9,207.95c2.8-14.76,12.56-23.93,25.46-23.93,7.68,0,16.27,3.39,24.86,9.79a8,8,0,0,0,9.48.06c8.59-6.23,17.16-9.53,24.78-9.53,12.86,0,22.68,9.07,25.64,23.67,4.59,23.73-10.72,55.73-55.13,74.25C128.58,264.11,113.28,232,117.9,207.95Z" transform="translate(0 -95)"/><path class="cls-1" d="M63.5,185.29A28.5,28.5,0,1,0,35,156.79,28.5,28.5,0,0,0,63.5,185.29Zm0-41A12.5,12.5,0,1,1,51,156.79,12.5,12.5,0,0,1,63.5,144.29Z" transform="translate(0 -95)"/></svg>