<svg id="Capa_1" data-name="Capa 1" xmlns="http://www.w3.org/2000/svg" viewBox="0 0 512 512"><defs><style>.cls-1{fill:#3ec02c;}</style></defs><title>whatsapp</title><path class="cls-1" d="M440.16,71.84A245.28,245.28,0,0,0,51.92,363.66L0,512l148.33-51.92A245.28,245.28,0,0,0,440.16,71.84ZM266.74,460.49a215,215,0,0,1-109.27-29.78l-6-3.55L49,463,84.83,360.54l-3.55-6A215,215,0,0,1,51.51,245.26C51.51,126.58,148.06,30,266.74,30S482,126.59,482,245.26,385.42,460.49,266.74,460.49Z" transform="translate(0 0)"/><path class="cls-1" d="M398.6,304.52l-35.39-35.39a30.07,30.07,0,0,0-42.47,0L307.2,282.67a194,194,0,0,1-77.87-77.86l13.54-13.54a30,30,0,0,0,0-42.47L207.48,113.4a30,30,0,0,0-42.47,0l-28.31,28.31c-16,16-16.73,43.56-2.12,77.66,12.77,29.79,36.15,62.54,65.82,92.22s62.43,53.06,92.22,65.82c16.25,7,31,10.44,43.76,10.44,14,0,25.54-4.19,33.9-12.56L398.6,347a30,30,0,0,0,0-42.47Zm-49.55,49.55c-6.32,6.32-23.83,4.65-44.6-4.25-26.36-11.3-55.77-32.41-82.82-59.46s-48.16-56.46-59.46-82.82c-8.9-20.77-10.57-38.28-4.25-44.6l28.32-28.31L221.63,170l-28.72,28.72,4.53,9.56A224,224,0,0,0,303.69,314.55l9.56,4.53L342,290.36l35.39,35.39Z" transform="translate(0 0)"/></svg>