<svg id="Capa_1" data-name="Capa 1" xmlns="http://www.w3.org/2000/svg" viewBox="0 0 511.99 512"><defs><style>.cls-1{fill:#f0918b;}</style></defs><title>wrench</title><path class="cls-1" d="M370.77,308.55l-43.15-44.33A43.74,43.74,0,0,1,361,248.79a15.17,15.17,0,0,0,10.57-4.31L498.72,119.31l.08-.08a45,45,0,0,0,0-63.64L456.37,13.16a45.05,45.05,0,0,0-63.6,0L265.65,138.24a15,15,0,0,0-4.48,10.63s0,0,0,.05,0,0,0,.05a43.74,43.74,0,0,1-15.3,33.27l-42.51-42.51A104.45,104.45,0,0,0,59.75,10.24a15,15,0,0,0-4.17,24.15L94.12,72.92A15,15,0,1,1,72.9,94.14L34.37,55.6a15,15,0,0,0-24.15,4.17,104.45,104.45,0,0,0,129.5,143.61l30.39,30.39L159.5,244.39a15,15,0,0,0,0,21.21l10.7,10.7L57.58,391c-.32.32-1.19,1.35-1.5,1.79L3,467.07a15,15,0,0,0,1.6,19.33l21.21,21.21a15,15,0,0,0,19.33,1.6l74.25-53a21,21,0,0,0,2-1.7L233.85,340l10.51,10.51a15,15,0,0,0,21.21,0L276,340l31,32.05a105,105,0,0,0,24.33,109.41c31.22,31.22,79.14,39.31,119.22,20.26a15,15,0,0,0,4.17-24.15l-38.53-38.53a15,15,0,0,1,21.21-21.21L476,456.37a15,15,0,0,0,24.15-4.17A104.45,104.45,0,0,0,370.77,308.55Zm43.1-274.09.08-.08a15,15,0,0,1,21.21,0L477.59,76.8a15,15,0,0,1,0,21.18L361.12,212.66,297.48,149Zm-260,140.64a15,15,0,0,0-17-2.94A74.38,74.38,0,0,1,30.75,94.41l20.94,20.94a45,45,0,0,0,63.64-63.64L94.4,30.77a74.38,74.38,0,0,1,77.74,106.06,15,15,0,0,0,2.94,17L216.6,195.4l-8.81,2.94a15.62,15.62,0,0,0-5.86,3.62l-10.6,10.6ZM38.08,477.41l-3.24-3.24,35.36-49.5L87.58,442Zm72.53-54.75L89.4,401.44l102-103.91,21.21,21.21ZM255,318.64,191.32,255l10.62-10.62h0l10.59-10.59,63.64,63.64Zm35.87-49L240.3,219.13l.41-.14a73.72,73.72,0,0,0,44.16-40.15l46.25,46.25A74,74,0,0,0,291,269.25ZM479.6,417.57l-20.94-20.94A45,45,0,1,0,395,460.27L416,481.21a74.38,74.38,0,0,1-77.74-106.06,15,15,0,0,0-2.77-16.88L297.23,318.8l10.6-10.6a15.31,15.31,0,0,0,3.79-6l2.82-8.47,41.9,43a15,15,0,0,0,17.19,3.08A74.38,74.38,0,0,1,479.6,417.57Z" transform="translate(-0.01 0)"/></svg>