<svg style="width: 24px; height: 24px;" widht="24px" height="24px" xmlns="http://www.w3.org/2000/svg" viewBox="0 0 512 512" xmlns:xlink="http://www.w3.org/1999/xlink" enable-background="new 0 0 512 512">
  <g>
    <path style="fill: #f0918b" d="m471.3,13.3l-260.1,133.3h-179.8c-11.3,0-20.4,9.1-20.4,20.4v176.6c0,11.3 9.1,20.4 20.4,20.4h64.5c-3.8,24.5 0.2,49.6 11.8,72.1 14.5,28.3 39.3,49.3 69.6,59 12.1,3.9 24.4,5.7 36.5,5.7 48.9,0 94.5-30.3 112-78.1l145.5,74.6c18.4,8.6 30.2-7.9 29.7-18.2v-447.7c1-9.1-10.7-26.3-29.7-18.1zm-419.5,174.2h140.8v135.8h-140.8v-135.8zm236.6,218.5c-13.2,41-57.5,63.6-98.6,50.4-20-6.4-36.2-20.2-45.8-38.8-8.6-16.7-10.8-35.5-6.5-53.5h73.6c0,5.68434e-14 77.5,41.2 77.3,41.9zm171.8,39.9l-226.8-116.2v-148.6l226.8-116.3v381.1z"/>
  </g>
</svg>
