<?xml version="1.0" encoding="iso-8859-1"?>
<!-- Generator: Adobe Illustrator 21.0.0, SVG Export Plug-In . SVG Version: 6.00 Build 0)  -->
<svg version="1.1" id="Capa_1" xmlns="http://www.w3.org/2000/svg" xmlns:xlink="http://www.w3.org/1999/xlink" x="0px" y="0px"
	 viewBox="0 0 512.012 512.012" style="enable-background:new 0 0 512.012 512.012;" xml:space="preserve">
<g>
	<g>
		<path fill="#f0918b" d="M496.307,90.695l-53.99-83.081c-2.983-4.541-7.969-7.37-13.397-7.603c-5.532-0.201-10.831,2.238-14.276,6.571
			L203.246,290.921c-21.373,27.745-51.121,47.86-84.83,57.361l-79.275,18.372c-23.093,6.476-39.073,27.506-39.125,51.49
			c0.016,6.906,0.798,13.789,2.33,20.523c0,0.085-0.06,0.154-0.068,0.239c-0.188,2.056,0.386,4.109,1.613,5.769
			c11.798,39.882,48.402,67.271,89.993,67.336h64.538c34.744,0.06,67.133-17.556,85.965-46.754l141.03-222.464
			c2.07-3.153,5.965-4.574,9.579-3.493c3.614,1.081,6.09,4.406,6.089,8.178v247.467c0,9.426,7.641,17.067,17.067,17.067h17.067
			c9.426,0,17.067-7.641,17.067-17.067v-191.65c0.007-18.389,4.247-36.53,12.39-53.018l37.436-65.621
			C517.125,154.553,514.912,118.721,496.307,90.695z M17.083,418.145c-0.022-16.213,10.691-30.483,26.266-34.987l79.275-18.364
			c37.443-10.475,70.499-32.768,94.242-63.556L428.057,16.993l18.253,28.1c-18.568,26.018-42.197,60.501-69.393,100.181
			c-59.196,86.409-132.847,193.954-187.273,261.308c-14.251,17.673-55.808,36.139-171.264,25.293
			C17.537,427.346,17.103,422.751,17.083,418.145z M435.217,494.945H418.15v-34.133h17.067V494.945z M487.065,176.651l-37.436,65.63
			c-9.449,18.953-14.382,39.836-14.413,61.013v140.45H418.15V247.478c0.162-11.392-7.361-21.468-18.33-24.55
			c-2.453-0.734-5-1.111-7.561-1.118c-8.61,0.011-16.611,4.441-21.188,11.733v0.077L230.016,456.05
			c-15.694,24.301-42.667,38.955-71.595,38.895H93.883c-30.246-0.044-57.654-17.823-70.025-45.423
			c21.069,1.818,40.422,2.756,57.916,2.756c62.362,0,102.246-11.588,121.173-34.987c54.775-67.866,128.683-175.71,188.058-262.366
			c25.242-36.847,47.454-69.274,65.306-94.455l25.737,39.612C497.264,122.881,499.177,152.062,487.065,176.651z"/>
	</g>
</g>
<g>
</g>
<g>
</g>
<g>
</g>
<g>
</g>
<g>
</g>
<g>
</g>
<g>
</g>
<g>
</g>
<g>
</g>
<g>
</g>
<g>
</g>
<g>
</g>
<g>
</g>
<g>
</g>
<g>
</g>
</svg>
