<?xml version="1.0" encoding="iso-8859-1"?>
<!-- Generator: Adobe Illustrator 21.0.0, SVG Export Plug-In . SVG Version: 6.00 Build 0)  -->
<svg version="1.1" id="Capa_1" xmlns="http://www.w3.org/2000/svg" xmlns:xlink="http://www.w3.org/1999/xlink" x="0px" y="0px"
	 viewBox="0 0 512.092 512.092" style="enable-background:new 0 0 512.092 512.092;" xml:space="preserve">
<g>
	<g>
		<g>
			<path fill="#f0918b" d="M498.212,89.024l-27.575-42.441c-19.127,26.981-42.926,61.723-69.97,101.202
				c-63.616,92.846-142.802,208.393-201.49,281.106c-20.279,25.07-63.013,37.486-129.829,37.486
				c-18.743,0-39.479-1.006-62.053-2.953c13.255,29.571,42.62,48.62,75.026,48.667h69.147c30.994,0.064,59.894-15.636,76.709-41.673
				l151.131-238.318v-0.082c4.904-7.813,13.477-12.56,22.702-12.571c2.744,0.007,5.472,0.411,8.101,1.198
				c11.752,3.302,19.812,14.098,19.639,26.304v210.286h18.286V306.752c0.033-22.69,5.318-45.065,15.442-65.371l40.11-70.318
				C516.564,144.717,514.515,113.451,498.212,89.024z"/>
			<path fill="#f0918b" d="M184.922,417.417c58.313-72.165,137.225-187.392,200.649-279.973c29.138-42.514,54.455-79.461,74.35-107.337L440.365,0
				L214.088,304.549c-25.439,32.988-60.856,56.873-100.974,68.096L28.177,392.32c-16.687,4.826-28.165,20.115-28.142,37.486
				c0.021,4.935,0.486,9.859,1.39,14.711C125.128,456.137,169.654,436.352,184.922,417.417z"/>
			<rect fill="#f0918b" x="429.75" y="475.52" width="18.286" height="36.571"/>
		</g>
	</g>
</g>
<g>
</g>
<g>
</g>
<g>
</g>
<g>
</g>
<g>
</g>
<g>
</g>
<g>
</g>
<g>
</g>
<g>
</g>
<g>
</g>
<g>
</g>
<g>
</g>
<g>
</g>
<g>
</g>
<g>
</g>
</svg>
