<svg height="512pt" viewBox="0 0 512 512" width="512pt" xmlns="http://www.w3.org/2000/svg"><path style="fill: #f0918b" d="m130.726562 142.46875h-88.816406c-8.78125 21.019531-14.429687 43.34375-16.6875 66.398438h95.925782c1.296874-23.054688 4.539062-45.386719 9.578124-66.398438zm0 0"/><path style="fill: #f0918b" d="m154.953125 289.199219h86.046875v-50.332031h-90.417969c.3125 17.148437 1.78125 34 4.371094 50.332031zm0 0"/><path style="fill: #f0918b" d="m241 142.46875h-79.171875c-5.460937 20.511719-9.136719 42.910156-10.601563 66.398438h89.773438zm0 0"/><path style="fill: #f0918b" d="m390.851562 208.867188h95.925782c-2.257813-23.054688-7.90625-45.378907-16.6875-66.398438h-88.816406c5.035156 21.011719 8.28125 43.34375 9.578124 66.398438zm0 0"/><path style="fill: #f0918b" d="m271 289.199219h86.046875c2.589844-16.332031 4.0625-33.183594 4.371094-50.332031h-90.417969zm0 0"/><path style="fill: #f0918b" d="m271 32.148438v80.316406h69.40625c-16.53125-42.25-41.378906-72.292969-69.40625-80.316406zm0 0"/><path style="fill: #f0918b" d="m241 32.148438c-28.027344 8.023437-52.875 38.066406-69.40625 80.316406h69.40625zm0 0"/><path style="fill: #f0918b" d="m55.164062 289.199219h69.425782c-2.390625-16.398438-3.722656-33.25-4.007813-50.332031h-96.375c.539063 18.195312 3.183594 36.117187 7.886719 53.535156 7.34375-2.070313 15.074219-3.203125 23.070312-3.203125zm0 0"/><path style="fill: #f0918b" d="m387.410156 289.199219h69.425782c7.996093 0 15.726562 1.132812 23.070312 3.203125 4.703125-17.417969 7.347656-35.339844 7.886719-53.535156h-96.375c-.285157 17.082031-1.617188 33.933593-4.007813 50.332031zm0 0"/><path style="fill: #f0918b" d="m157.683594 71.242188c25.519531-45.941407 60.4375-71.242188 98.316406-71.242188-61.941406 0-120.179688 24.121094-163.980469 67.921875-13.566406 13.566406-25.242187 28.523437-34.902343 44.546875h82.34375c5.113281-14.753906 11.199218-28.589844 18.222656-41.226562zm0 0"/><path style="fill: #f0918b" d="m271 208.867188h89.773438c-1.46875-23.488282-5.140626-45.886719-10.601563-66.398438h-79.171875zm0 0"/><path style="fill: #f0918b" d="m354.316406 71.242188c7.023438 12.636718 13.109375 26.472656 18.222656 41.226562h82.34375c-9.660156-16.023438-21.335937-30.980469-34.902343-44.546875-43.800781-43.800781-102.039063-67.921875-163.980469-67.921875 37.878906 0 72.796875 25.300781 98.316406 71.242188zm0 0"/><path style="fill: #f0918b" d="m456.835938 319.199219h-401.671876c-30.417968 0-55.164062 24.746093-55.164062 55.167969v82.464843c0 30.421875 24.746094 55.167969 55.164062 55.167969h401.671876c30.417968 0 55.164062-24.746094 55.164062-55.167969v-82.464843c0-30.421876-24.746094-55.167969-55.164062-55.167969zm-282.371094 159.144531h-50.933594c-7.917969 0-13.660156-4.660156-13.660156-11.085938v-104.441406c0-6.535156 6.003906-10.925781 14.941406-10.925781 8.941406 0 14.945312 4.390625 14.945312 10.925781v88.210938h34.703126c6.339843 0 10.769531 5.617187 10.769531 13.660156 0 7.914062-4.527344 13.65625-10.765625 13.65625zm43.054687-11.085938c0 6.425782-6.285156 11.085938-14.941406 11.085938-8.800781 0-14.945313-4.558594-14.945313-11.085938v-104.441406c0-6.535156 6.007813-10.925781 14.945313-10.925781s14.941406 4.390625 14.941406 10.925781zm100.207031-99.800781-.082031.316407c-.019531.074218-.039062.144531-.0625.214843l-30.847656 101.066407c-1.898437 6.316406-8.71875 10.253906-17.800781 10.253906-8.875 0-15.679688-3.886719-17.769532-10.148438-.007812-.03125-.019531-.066406-.03125-.101562l-31.011718-101.066406c-.019532-.078126-.042969-.152344-.0625-.230469-.242188-.976563-.453125-1.820313-.453125-2.695313 0-8.484375 10.449219-13.175781 17.675781-13.175781 8.519531 0 10.824219 5.269531 11.417969 7.535156l20.21875 71.613281 20.105469-71.6875c.578124-2.195312 2.882812-7.464843 11.402343-7.464843 7.222657 0 17.675781 4.695312 17.675781 13.179687 0 .972656-.207031 1.757813-.375 2.390625zm52.265626 34.886719c6.320312 0 11.089843 5.527344 11.089843 12.855469 0 6.074219-3.886719 12.53125-11.089843 12.53125h-19.921876v23.296875h40.96875c6.429688 0 11.089844 5.8125 11.089844 13.820312 0 7.820313-4.660156 13.496094-11.089844 13.496094h-57.195312c-7.917969 0-13.660156-4.660156-13.660156-11.085938v-104.277343c0-6.425781 5.742187-11.089844 13.660156-11.089844h57.195312c6.429688 0 11.089844 5.675781 11.089844 13.5 0 8.003906-4.660156 13.816406-11.089844 13.816406h-40.96875v23.136719zm0 0"/></svg>