<svg height="512pt" viewBox="0 0 512 512" width="512pt" xmlns="http://www.w3.org/2000/svg">
	<path style="fill: #f0918b" d="m479.460938 294.074219c5.597656-20.160157 8.441406-41.003907 8.441406-62.175781 0-2.664063-.0625-5.316407-.152344-7.964844 0-.023438.003906-.046875.003906-.066406 0-.144532-.019531-.28125-.023437-.421876-2.089844-58.773437-25.953125-113.722656-67.753907-155.523437-43.796874-43.800781-102.035156-67.921875-163.976562-67.921875s-120.179688 24.121094-163.980469 67.921875c-41.789062 41.792969-65.652343 96.730469-67.75 155.488281-.003906.152344-.023437.300782-.023437.457032 0 .023437 0 .046874.003906.070312-.089844 2.648438-.152344 5.300781-.152344 7.960938 0 21.171874 2.84375 42.015624 8.441406 62.175781-19.160156 8.65625-32.539062 27.933593-32.539062 50.292969v112.464843c0 30.421875 24.746094 55.167969 55.164062 55.167969h401.671876c30.417968 0 55.164062-24.746094 55.164062-55.167969v-112.464843c0-22.359376-13.378906-41.640626-32.539062-50.292969zm-208.460938-4.875v-50.332031h90.417969c-.3125 17.148437-1.78125 34-4.371094 50.332031zm-116.046875 0c-2.589844-16.332031-4.058594-33.183594-4.371094-50.332031h90.417969v50.332031zm-92.601563 0c-4.820312-16.3125-7.542968-33.179688-8.125-50.332031h66.355469c.285157 17.082031 1.617188 33.933593 4.007813 50.332031zm12.671876-146.730469h55.703124c-5.039062 21.011719-8.28125 43.34375-9.578124 66.398438h-65.726563c2.691406-23.597657 9.46875-45.972657 19.601563-66.398438zm381.554687 66.398438h-65.726563c-1.296874-23.054688-4.542968-45.386719-9.578124-66.398438h55.703124c10.132813 20.425781 16.910157 42.800781 19.601563 66.398438zm-95.804687 0h-89.773438v-66.398438h79.171875c5.460937 20.511719 9.136719 42.910156 10.601563 66.398438zm-89.773438-96.398438v-80.320312c28.027344 8.023437 52.875 38.066406 69.40625 80.316406h-69.40625zm-30-80.320312v80.316406h-69.40625c16.53125-42.25 41.378906-72.292969 69.40625-80.316406zm0 110.320312v66.398438h-89.773438c1.46875-23.488282 5.140626-45.886719 10.601563-66.398438zm150.417969 96.398438h66.355469c-.582032 17.152343-3.304688 34.015624-8.125 50.332031h-62.238282c2.390625-16.398438 3.71875-33.25 4.007813-50.332031zm27.261719-126.398438h-46.140626c-5.113281-14.753906-11.199218-28.589844-18.21875-41.226562-4.703124-8.460938-9.722656-16.214844-15.019531-23.246094 31.660157 14.398437 58.96875 36.746094 79.378907 64.472656zm-245.980469-64.472656c-5.296875 7.03125-10.316407 14.785156-15.019531 23.246094-7.019532 12.636718-13.105469 26.472656-18.21875 41.226562h-46.140626c20.410157-27.726562 47.71875-50.074219 79.378907-64.472656zm309.300781 408.835937c0 13.878907-11.289062 25.167969-25.164062 25.167969h-401.671876c-13.875 0-25.164062-11.289062-25.164062-25.167969v-112.464843c0-12.984376 9.882812-23.703126 22.519531-25.027344.15625-.011719.3125-.023438.46875-.039063.71875-.0625 1.445313-.101562 2.175781-.101562h87 .128907 227.308593c.019532 0 .039063.003906.058594.003906.023438 0 .042969-.003906.066406-.003906h87.109376c13.875 0 25.164062 11.289062 25.164062 25.167969zm0 0"/><path style="fill: #f0918b" d="m174.464844 436.027344h-34.707032v-88.210938c0-6.535156-6.003906-10.925781-14.941406-10.925781s-14.945312 4.390625-14.945312 10.925781v104.441406c0 6.421876 5.746094 11.085938 13.660156 11.085938h50.933594c6.238281 0 10.765625-5.742188 10.765625-13.65625 0-8.042969-4.425781-13.660156-10.765625-13.660156zm0 0"/><path style="fill: #f0918b" d="m202.574219 336.890625c-8.9375 0-14.941407 4.390625-14.941407 10.925781v104.441406c0 6.527344 6.144532 11.085938 14.941407 11.085938 8.660156 0 14.945312-4.660156 14.945312-11.085938v-104.441406c0-6.535156-6.003906-10.925781-14.945312-10.925781zm0 0"/><path style="fill: #f0918b" d="m300.425781 336.890625c-8.519531 0-10.824219 5.269531-11.402343 7.464844l-20.101563 71.683593-20.21875-71.613281c-.597656-2.265625-2.902344-7.535156-11.421875-7.535156-7.222656 0-17.675781 4.691406-17.675781 13.175781 0 .875.210937 1.71875.453125 2.695313.019531.078125.042968.15625.066406.234375l31.011719 101.0625c.007812.035156.019531.070312.03125.105468 2.085937 6.257813 8.894531 10.144532 17.765625 10.144532 9.082031 0 15.90625-3.9375 17.800781-10.253906l30.851563-101.066407c.019531-.070312.039062-.140625.058593-.214843l.082031-.316407c.167969-.632812.375-1.417969.375-2.390625 0-8.484375-10.449218-13.175781-17.675781-13.175781zm0 0"/><path style="fill: #f0918b" d="m391.039062 364.207031c6.425782 0 11.089844-5.8125 11.089844-13.816406 0-7.824219-4.664062-13.5-11.089844-13.5h-57.195312c-7.917969 0-13.660156 4.664063-13.660156 11.089844v104.277343c0 6.425782 5.742187 11.085938 13.660156 11.085938h57.195312c6.425782 0 11.089844-5.675781 11.089844-13.496094 0-8.007812-4.664062-13.820312-11.089844-13.820312h-40.96875v-23.296875h19.921876c7.203124 0 11.089843-6.457031 11.089843-12.53125 0-7.328125-4.765625-12.855469-11.089843-12.855469h-19.921876v-23.136719zm0 0"/></svg>