<svg height="512pt" viewBox="-2 0 511 512" width="512pt" xmlns="http://www.w3.org/2000/svg"><path fill="#f0918b" d="m507.585938 177.238281-21.289063-56.328125-35.578125-13.710937-13.578125-35.933594-35.582031-13.714844-13.578125-35.933593-56.09375-21.617188-40.230469 114.160156c-6.746094-2.042968-13.828125-3.105468-21.074219-3.105468-19.464843 0-37.757812 7.644531-51.507812 21.535156l-87.4375 88.304687c-19.585938 19.78125-25.601563 48.152344-18.0625 73.21875l-113.074219 40.652344 21.285156 56.324219 35.582032 13.714844 13.578124 35.933593 35.578126 13.710938 13.578124 35.9375 56.097657 21.613281 40.230469-114.160156c6.746093 2.046875 13.828124 3.109375 21.070312 3.109375 19.46875 0 37.761719-7.648438 51.507812-21.535157l87.4375-88.308593c19.589844-19.78125 25.601563-48.152344 18.0625-73.21875zm-157.804688-138.425781 15.054688 5.800781 13.578124 35.933594 35.578126 13.710937 13.582031 35.933594 35.578125 13.714844 5.875 15.546875-88.96875 31.984375-61.996094-62.601562zm-48.851562 114.726562 54.355468 54.898438c14.4375 14.582031 16.492188 36.992188 6.183594 53.816406-37.269531-18.429687-43.03125-35.535156-49.617188-55.101562-6.890624-20.46875-14.558593-43.222656-51.402343-65.101563 3.28125-.800781 6.675781-1.21875 10.132812-1.21875 11.457031 0 22.234375 4.511719 30.347657 12.707031zm-68.070313 7.449219c38.300781 18.644531 44.117187 35.902344 50.769531 55.664063 7.226563 21.46875 15.308594 45.453125 57.007813 68.300781l-21.003907 21.207031c-38.277343-18.640625-44.09375-35.890625-50.746093-55.652344-7.226563-21.46875-15.308594-45.457031-57.027344-68.308593zm-74.558594 312.203125-15.054687-5.804687-13.574219-35.929688-35.582031-13.714843-13.578125-35.933594-35.578125-13.710938-5.878906-15.550781 88.972656-31.984375 61.996094 62.605469zm48.851563-114.730468-54.355469-54.894532c-14.410156-14.554687-16.484375-36.914062-6.242187-53.726562 37.242187 18.425781 43 35.527344 49.585937 55.085937 6.886719 20.457031 14.550781 43.195313 51.335937 65.0625-3.234374.773438-6.574218 1.179688-9.976562 1.179688-11.453125.003906-22.234375-4.511719-30.347656-12.707031zm67.992187-7.367188c-38.308593-18.648438-44.125-35.902344-50.78125-55.667969-7.226562-21.464843-15.304687-45.445312-56.996093-68.292969l22.550781-22.777343c38.28125 18.640625 44.09375 35.894531 50.746093 55.65625 7.230469 21.46875 15.3125 45.457031 57.027344 68.308593zm0 0"/></svg>