<svg height="512pt" viewBox="0 0 512 512" width="512pt" xmlns="http://www.w3.org/2000/svg"><path fill="#f0918b" d="m399.011719 166.867188c12.023437 12.144531 20.371093 26.609374 25.0625 41.976562l87.925781-31.605469-21.285156-56.328125-35.582032-13.710937-13.578124-35.933594-35.578126-13.714844-13.578124-35.933593-56.097657-21.617188-30.769531 87.320312c14.578125 5.003907 27.933594 13.347657 39.125 24.652344zm0 0"/><path fill="#f0918b" d="m112.988281 344.714844c-11.925781-12.042969-20.234375-26.371094-24.949219-41.601563l-88.039062 31.652344 21.285156 56.324219 35.582032 13.714844 13.578124 35.933593 35.578126 13.710938 13.578124 35.9375 56.097657 21.613281 30.902343-87.691406c-14.632812-5-28.03125-13.363282-39.257812-24.703125zm0 0"/><path fill="#f0918b" d="m189.15625 315.898438c-9.425781-25.96875-17.617188-48.519532-70.859375-72.410157-11.386719 26.753907-6.300781 59.003907 15.300781 80.820313l54.351563 54.894531c13.75 13.886719 32.042969 21.535156 51.511719 21.535156 7.105468 0 14.054687-1.027343 20.6875-3-51.097657-27.058593-61.601563-55.972656-70.992188-81.839843zm0 0"/><path fill="#f0918b" d="m242.191406 260.519531c-8.992187-26.023437-16.753906-48.503906-75.207031-73.300781l.1875-.445312-31.425781 31.738281c60.332031 28.550781 71.605468 59.585937 81.609375 87.152343 9.582031 26.398438 17.886719 49.269532 73.550781 73.597657.019531-.019531.039062-.039063.0625-.058594l32.121094-32.441406c-60.988282-28.625-71.539063-59.144531-80.898438-86.242188zm0 0"/><path fill="#f0918b" d="m270.546875 250.726562c8.984375 26.007813 16.746094 48.476563 75.097656 73.257813l29.203125-29.492187c-60.117187-28.546876-71.917968-60-82.394531-87.945313-9.960937-26.574219-18.617187-49.648437-71.980469-73.605469l-31.105468 31.414063c61.234374 28.660156 71.804687 59.230469 81.179687 86.371093zm0 0"/><path fill="#f0918b" d="m378.40625 187.273438-54.355469-54.894532c-13.75-13.886718-32.042969-21.535156-51.511719-21.535156-7.617187 0-15.054687 1.1875-22.113281 3.445312 49.539063 26.847657 60.398438 55.796876 70.117188 81.726563 9.988281 26.644531 18.664062 49.777344 72.421875 73.804687 12.355468-27.082031 7.503906-60.261718-14.558594-82.546874zm0 0"/></svg>