<svg id="Layer_1" data-name="Layer 1" xmlns="http://www.w3.org/2000/svg" viewBox="0 0 794.54 367"><defs><style>.cls-1{fill:#f0918c;}.cls-2{fill:#f0928c;}</style></defs><title>logo_body_F</title><path class="cls-1" d="M465.17,83.72c5.36,9.08,1.81,25.15-2,30.48s-18.27,2.74-18.27,2.74a37.74,37.74,0,0,0,7.4,2,24.5,24.5,0,0,1-10.54,19s9.36,12.21.47,29.14c-6.89,13.12-53.94,61-53.94,61s40.21-32.39,57-56.55c10.1-14.51,6.79-23.71,2.53-28.76,1.1-1.53,5.69-8.64,7.38-23.42a38.83,38.83,0,0,0,7.55.28c6.13-.41,7.8-12.65,7.56-21.71C470.1,87.95,465.17,83.72,465.17,83.72ZM367.49,243.5s.61-14.62,10-31.72C387.65,193.41,418,145.11,418,145.11S353.87,208.07,367.49,243.5ZM458.52,55c9.27,21.17-4.41,39.45-4.41,39.45C470,82.35,471.88,56.78,457.8,37.38s-31.58-2.66-31.58-2.66S444.06,22,458.52,55Zm-48,82.61c64.91-13.26,29.71-90.79,29.71-90.79s11.43,38.54-4.63,64.41c-13.82,22.27-46.27,15.55-63.67,41.09s-5,52.75-5,52.75S351.38,149.69,410.49,137.62Zm-39.15-6.39s22.19-9,22.19-27.36-10-36.56,3.54-52.77c9.38-11.24,25-15.13,25-15.13s-39,3.64-42.38,28.63S408.55,106.8,371.35,131.23ZM375,264.68c22.19-7.64,48.38-21.51,36.5-53.16,0,0,4.66,26.05-19.64,38.91-27.68,14.64-69.51,14.25-50.43,76.72C355.77,374.27,366.21,395,366.21,395s-19.41-71.93-18.62-92.61C348.28,284.55,352.77,272.32,375,264.68Zm96.81-82.08a182.17,182.17,0,0,1-18.46-19.79s.12,2.59,14.37,22.41c6.06,8.43,6.44,15.45.13,22.36-5.7,6.24-16.06,7.22-16.06,7.22,7.52,64.38-52.38,71-52.38,71s15.34,33.4,5.82,109.25c0,0,15-43.22,3.6-103l0,0c59.15-25.88,54.72-73.34,54.72-73.34C484.15,207.46,483,193.07,471.77,182.59ZM455,395c-7.21-76.3-30.2-108-30.2-108Z" transform="translate(-15.55 -28)"/><path class="cls-2" d="M94.75,224.3a34.7,34.7,0,0,0-8.45,6.3,26.85,26.85,0,0,0-5.85,9.09,1.07,1.07,0,0,1-1.55.1,2.38,2.38,0,0,1-1.15-1.5A33.68,33.68,0,0,1,83.9,222.5,29.13,29.13,0,0,1,95.55,213q.2-2.5.25-5.1t.15-5.3c0-.27,0-.61,0-1s0-.78,0-1a6,6,0,0,0,.1-1.15v-1.15q0-1.3.11-2.55t.11-2.55q.33-7.09,1-16.29-1.61.8-3.81,1.65a42.19,42.19,0,0,1-4.77,1.5q-2.56.65-5.27,1.1a32.44,32.44,0,0,1-5.32.45A13.88,13.88,0,0,1,71.56,180,6.88,6.88,0,0,1,68,175a13.85,13.85,0,0,1-.4-3.4,15.68,15.68,0,0,1,1.85-7.34,24.75,24.75,0,0,1,4.8-6.4,28.12,28.12,0,0,1,6.6-4.75,22.4,22.4,0,0,1,7.35-2.4c.27,0,.58,0,1,0a9.8,9.8,0,0,0,1-.15q.8-.1,1.65-.15t1.65-.05A27.52,27.52,0,0,1,102.9,152a23,23,0,0,1,8.25,5.25q10.1-2.9,21.2-5.4t22.5-4.8q8.2-1.7,16.8-3.6t17-4q8.4-2,16.45-4.35t15.15-4.8h-.1l2.55-.95q1.75-.65,3.6-1.45a23.37,23.37,0,0,0,3.4-1.8,4.55,4.55,0,0,0,1.95-2.1q.1-.5.2-.9a3,3,0,0,0,.1-.7,3.71,3.71,0,0,1,.1-.9c.07-.27.3-.47.7-.6h-.1a1.79,1.79,0,0,1,1.3.1,2.21,2.21,0,0,1,1.1,1.1,4,4,0,0,1,0,3.9,16.29,16.29,0,0,1-3,4,28.15,28.15,0,0,1-4,3.45q-2.15,1.5-3.25,2.2a122.61,122.61,0,0,1-19.2,9.3q-10.8,4.2-22.25,7.7T160.65,159q-11.2,2.75-20.5,4.95l-5,1.2q-5.4,1.2-9.95,2.3a67.91,67.91,0,0,0-7.75,2.3c0,.4,0,.8,0,1.2s.07.92.1,1.55.07,1.42.1,2.35,0,2.1,0,3.5v4.45q0,2.55-.1,6t-.25,8q-.15,4.55-.55,10.44h.6a2.2,2.2,0,0,0,.7-.1h.4a.41.41,0,0,0,.3-.1h-.1q4.7-.9,9.4-1.9a83.64,83.64,0,0,0,9.05-2.45,53.53,53.53,0,0,0,8-3.4,23.41,23.41,0,0,0,6.3-4.75q.5-.7.9-.7a.85.85,0,0,1,.7.45,4.14,4.14,0,0,1,.5,1.15,12.26,12.26,0,0,1,.3,1.3,14.84,14.84,0,0,1-3.7,8,25.65,25.65,0,0,1-7.4,5.55,53.75,53.75,0,0,1-9.9,3.8q-5.5,1.55-11.2,2.75l-2.9.5c-.4.13-.8.25-1.2.35a11.81,11.81,0,0,1-1.7.25v2.2a.7.7,0,0,1-.05.3.44.44,0,0,0,0,.2v.4h.1q-1,10.29-2.9,21.49a144,144,0,0,1-5.5,21.89,107.57,107.57,0,0,1-9.25,20.29,63.06,63.06,0,0,1-14,16.59,45.43,45.43,0,0,1-6.3,3.8,51.61,51.61,0,0,1-7.1,2.9,57.8,57.8,0,0,1-7.6,1.9,43.25,43.25,0,0,1-7.6.7h-4.3a39.8,39.8,0,0,1-15.05-5.2,39.36,39.36,0,0,1-11.25-10.1,45.36,45.36,0,0,1-7-14,56.43,56.43,0,0,1-2.45-16.8,55,55,0,0,1,1.85-14.1,53.28,53.28,0,0,1,5.3-13,44.31,44.31,0,0,1,8.45-10.6,33.56,33.56,0,0,1,11.3-6.9,19.52,19.52,0,0,1,3.95-.95,29.64,29.64,0,0,1,3.75-.25,14.93,14.93,0,0,1,7.9,1.95,15.39,15.39,0,0,1,5.2,5.25,24,24,0,0,1,2.9,7.65,45.08,45.08,0,0,1,.9,9.15q0,3.5-.2,6.2t-.4,4.7v-.1a6,6,0,0,1-1.25,1.9,3,3,0,0,1-1.25.75,2,2,0,0,1-1.1,0,3,3,0,0,1-.8-.35,3.05,3.05,0,0,1,0-.95,8.76,8.76,0,0,0,0-1v-6.4a3.51,3.51,0,0,1,.05-.6,4.37,4.37,0,0,0,0-.7q0-3-.25-6a20.11,20.11,0,0,0-1.15-5.4,10.27,10.27,0,0,0-2.55-3.95,6.61,6.61,0,0,0-4.45-1.65,8.91,8.91,0,0,0-5,1.1A19.53,19.53,0,0,0,44,234,36.21,36.21,0,0,0,39.4,240a60.91,60.91,0,0,0-3.95,7.5A73.44,73.44,0,0,0,32.3,256a65.32,65.32,0,0,0-2,9q-.4,2.6-.5,4.3t-.1,2.7a46,46,0,0,0,1.6,12.3,36.46,36.46,0,0,0,4.45,10.2,24.44,24.44,0,0,0,6.75,7.05,15.6,15.6,0,0,0,8.6,2.75A25.9,25.9,0,0,0,62.4,300.9a37.9,37.9,0,0,0,9.4-7.7,55.94,55.94,0,0,0,7.55-10.89,106.38,106.38,0,0,0,5.85-12.94,131.9,131.9,0,0,0,4.35-13.89q1.8-7.09,3-13.69Q94.15,233,95,224.4Zm.8-61.35a6.88,6.88,0,0,0-1.95-5,5.93,5.93,0,0,0-4.05-1.55,10.68,10.68,0,0,0-4,.85,15.56,15.56,0,0,0-4,2.4,16.45,16.45,0,0,0-3.3,3.65,11.39,11.39,0,0,0-1.8,4.5c0,.4.32.62.95.65a11.06,11.06,0,0,0,2.4-.2,30.3,30.3,0,0,0,3.2-.75l3.55-1,1.7-.5q3-.9,5.2-1.7t2.1-1.3Z" transform="translate(-15.55 -28)"/><path class="cls-2" d="M188.55,147.45A5.83,5.83,0,0,1,192.7,149a11.62,11.62,0,0,1,2.65,3.8,16.62,16.62,0,0,1,1.3,4.9,30.09,30.09,0,0,1,.2,4.75,44.16,44.16,0,0,1-3.45,13.4,81.36,81.36,0,0,1-7,13.05,107.85,107.85,0,0,1-9.3,12.1,133.14,133.14,0,0,1-10.3,10.45q-1.1,4-1.75,7.2t-1.35,7.2q-.7,4-1.1,7.9a16,16,0,0,0-.2,2.45v2.25a22.17,22.17,0,0,0,1.3,8.1,4.64,4.64,0,0,0,4.6,3.3q4.1,0,8.1-3.7A52,52,0,0,0,184,237a112.85,112.85,0,0,0,6.75-11.4q3.1-6,5.4-10.7,1.2-2.7,2.2-4.7a20.21,20.21,0,0,1,1.6-2.8,2.2,2.2,0,0,1,.85-.4,3.63,3.63,0,0,1,.75-.1,2,2,0,0,1,1.45.55,5.19,5.19,0,0,1,1,1.35l-3.4,6.9h.1q-2.1,4.5-4.5,9.4t-5,9.6q-2.65,4.7-5.6,9a57.73,57.73,0,0,1-6.1,7.55,28.14,28.14,0,0,1-6.6,5.15,14.63,14.63,0,0,1-7.15,1.9,14.23,14.23,0,0,1-8-2.1,15.38,15.38,0,0,1-5-5.45,24.33,24.33,0,0,1-2.6-7.55,48.25,48.25,0,0,1-.75-8.5V232a17.47,17.47,0,0,1,.2-2.65v.1q.3-3.6,1.2-9T153,208.6q1.4-6.45,3.4-13.45t4.5-13.8a138.34,138.34,0,0,1,5.5-12.95,68.48,68.48,0,0,1,6.45-10.8,32.41,32.41,0,0,1,7.4-7.4A14.37,14.37,0,0,1,188.55,147.45Zm1.4,7.9q-1.6,0-4.1,3.65a68.62,68.62,0,0,0-5.4,10q-2.9,6.35-5.9,15.05t-5.6,18.9a62.24,62.24,0,0,0,5.75-6,102.51,102.51,0,0,0,7.35-9.65,85.82,85.82,0,0,0,6.6-11.6,35.05,35.05,0,0,0,3.4-11.85q.1-1.3.1-2.75a14.61,14.61,0,0,0-.25-2.75,6.79,6.79,0,0,0-.75-2.15A1.43,1.43,0,0,0,190,155.35Z" transform="translate(-15.55 -28)"/><path class="cls-2" d="M204.35,191.85a15.42,15.42,0,0,0,.3-2.8,7.87,7.87,0,0,1,.2-1.9,2.06,2.06,0,0,1,1.6-1.55,5.42,5.42,0,0,1,2.6.15,17.56,17.56,0,0,1,6.1,3.3,6.18,6.18,0,0,1,1.9,4.7,15.5,15.5,0,0,1-.35,3.1q-.35,1.7-1,3.7-1,3.2-2.25,7.75T211,217.9q-1.2,5.05-2.15,10t-1.45,9.2q-.1,1-.15,2.15c0,.77-.05,1.42-.05,1.95a18.69,18.69,0,0,0,.7,5.65q.7,2.15,2.4,2.25a5.22,5.22,0,0,0,3.25-1.7,33.17,33.17,0,0,0,4-4.5q2.1-2.8,4.3-6.35t4.4-7.4q2.2-3.85,4.2-7.6t3.6-6.85q1.3-2.4,2.25-4.25a31.42,31.42,0,0,1,1.75-3,3.83,3.83,0,0,1,1.5-.5q1.3,0,2.5,2l-1.1,2.1q-2,4-4.5,9T231,230.3q-3,5.15-6.15,10a89.53,89.53,0,0,1-6.4,8.7,36,36,0,0,1-6.4,6.1,10.57,10.57,0,0,1-6.1,2.3,11.25,11.25,0,0,1-5.85-1.4,10.76,10.76,0,0,1-3.8-3.85,17.25,17.25,0,0,1-2.05-5.7,38.86,38.86,0,0,1-.6-7q0-1.2.05-2.45t.15-2.45a104.43,104.43,0,0,1,3.4-19.25q2.6-9.45,5.7-19l1.4-4.6Zm18.1-25.7A17,17,0,0,1,224,169.8a9.17,9.17,0,0,1,.35,3,6.85,6.85,0,0,1-2.9,5.25,9.19,9.19,0,0,1-5.4,1.85,5.55,5.55,0,0,1-4.2-2q-1.8-1.95-1.6-6.15a11.6,11.6,0,0,1,.7-3.25,12.9,12.9,0,0,1,1.5-2.95,7.58,7.58,0,0,1,2.15-2.1,4.84,4.84,0,0,1,2.65-.8,5.19,5.19,0,0,1,2.65.8A8.27,8.27,0,0,1,222.45,166.15Z" transform="translate(-15.55 -28)"/><path class="cls-2" d="M232.75,217l6.9-13.7a12.87,12.87,0,0,1-5.85-1.85,13.15,13.15,0,0,1-4-3.9,15.67,15.67,0,0,1-2.2-5.25,18.42,18.42,0,0,1-.35-5.9,24.69,24.69,0,0,1,1.85-6.6,26.37,26.37,0,0,1,3.7-6.2A19.71,19.71,0,0,1,238,169a12.59,12.59,0,0,1,6.6-1.8q4.5,0,6.35,2.6t1.55,7.8a41.21,41.21,0,0,1-1.1,5.9q-.8,3.1-1.7,5.85T248,194.35q-.85,2.2-1.25,3.3a23.38,23.38,0,0,0,4.65.7q2.25.1,4.25.1t3.75.1a6.43,6.43,0,0,1,2.8.75,3.69,3.69,0,0,1,1.65,1.95,8.71,8.71,0,0,1,.3,3.7,30.79,30.79,0,0,1-.6,3.4l-1,4.1q-.9,3.6-1.85,7.6T258.9,228q-.85,4-1.55,7.55t-1,6.3a15.34,15.34,0,0,0,.45,5.35q.65,2.15,1.75,2.35a12.65,12.65,0,0,0,4.15-3.15,50.2,50.2,0,0,0,4.8-6q2.45-3.5,5.05-7.65t4.95-8.3q2.35-4.15,4.35-8t3.5-6.65l.3-.7h-.1a10.59,10.59,0,0,1,.95-1.6,1.82,1.82,0,0,1,1.55-.6q1.3,0,2.5,2l-1.1,2.1-3.25,6.5q-1.85,3.7-4,7.8t-4.6,8.3q-2.45,4.2-4.9,8a79.48,79.48,0,0,1-5,6.95,35.65,35.65,0,0,1-4.85,5.05,17,17,0,0,1-4.75,2.8,14.83,14.83,0,0,1-5.55,1.1,6.79,6.79,0,0,1-4.4-1.45,10.75,10.75,0,0,1-3-3.9,20.78,20.78,0,0,1-1.65-5.65,43.22,43.22,0,0,1-.5-6.7q0-1.1.05-2.25t.15-2.25a65.41,65.41,0,0,1,1-6.7q.8-4.2,1.9-8.75t2.3-8.75a68.86,68.86,0,0,1,2.3-6.9l-6.8-.3q-1.7,3.5-3.5,7.1l-3.5,7Zm6.2-25.1a5.71,5.71,0,0,0,.45,3.2,3.48,3.48,0,0,0,2.65,1.7L243.3,194q.85-1.95,1.7-4.4t1.55-4.95a26.94,26.94,0,0,0,.9-4.5q.1-2.1-.3-2.1-.8,0-2.1,1.35a20.55,20.55,0,0,0-2.6,3.45,30.44,30.44,0,0,0-2.3,4.55A16.19,16.19,0,0,0,238.95,191.95Z" transform="translate(-15.55 -28)"/><path class="cls-2" d="M310.95,158.95a55,55,0,0,1-.75,5.6q-.55,3-1.25,6.4a69,69,0,0,1,8.45.5,29.53,29.53,0,0,1,7.5,1.9A20.63,20.63,0,0,1,331,177.2a18.52,18.52,0,0,1,4.4,6.25h-.1a1.53,1.53,0,0,1-.3,1.7,1.46,1.46,0,0,1-1.9.4,21.16,21.16,0,0,0-10.25-5.65,56,56,0,0,0-13-1.45h-2.5q-1,4.5-2.15,9l-2.35,9.2-1.9,7.6-.3,1.3q-.7,2.6-1.8,7t-2.15,9.6q-1.05,5.15-1.8,10.35a66.43,66.43,0,0,0-.75,9.4,24.84,24.84,0,0,0,.45,5,4.45,4.45,0,0,0,1.65,3q.9.7,2.9.1a17.59,17.59,0,0,0,4.9-2.7A37,37,0,0,0,310.1,241a89.49,89.49,0,0,0,5.6-8.25q2.65-4.4,4.9-8.85t3.95-8.05h-.1q1.4-2.8,2.55-4.95a24.39,24.39,0,0,1,2.25-3.55,2.88,2.88,0,0,1,1.1-.1,2.43,2.43,0,0,1,2.3,1.9l-3.6,7.5h.1q-3.2,6.7-7,14.1a115.45,115.45,0,0,1-8.15,13.6,51.66,51.66,0,0,1-9.25,10.25,16,16,0,0,1-10.3,4.05q-8.9,0-12.4-4.4t-3.5-12.3q0-1.1.05-2.2t.15-2.3q.3-3.4,1.4-9.3t2.6-13q1.5-7.05,3.3-14.8t3.5-15l1.4-5.7q-3.4.3-6.5.5t-6,.2a34.57,34.57,0,0,1-10.7-1.5,10.33,10.33,0,0,1-6.5-5.6,5.29,5.29,0,0,1-.3-1.15,2,2,0,0,1,.1-1.1,1.08,1.08,0,0,1,.75-.6,1.9,1.9,0,0,1,1.45.45l-.1-.1a25.24,25.24,0,0,0,6.55,1.8,52.57,52.57,0,0,0,7.35.5q3.6,0,7.7-.35t8-.75q1.4-6.3,2.4-11.05t1.2-6.85a15.59,15.59,0,0,0-.05-2.85q-.15-1.15-.35-2.15c-.07-.33-.12-.65-.15-1a7.5,7.5,0,0,1,0-.85A2.16,2.16,0,0,1,297,145.5a6.18,6.18,0,0,1,2.45-.45,13.82,13.82,0,0,1,6.25,1.2,9,9,0,0,1,3.6,3.15,10.44,10.44,0,0,1,1.55,4.45A26.09,26.09,0,0,1,310.95,158.95Z" transform="translate(-15.55 -28)"/><path class="cls-2" d="M592.35,136.65a44.69,44.69,0,0,1,11.3,12.95,59,59,0,0,1,6.2,15.85,88.29,88.29,0,0,1,2.25,17.9,178.25,178.25,0,0,1-.55,19.2q-.2,2.1-.35,4.15t-.45,4q-.8,7-1.9,14.65T606.55,240l-.8,4.7q-.7,3.4-1.3,7.1t-1.1,7q-1.1,6.7-2.6,13.7t-3.2,13a103.14,103.14,0,0,0,10.7-11.7q5.3-6.7,10.3-14.1t9.6-15.1q4.6-7.7,8.6-14.9T644,216.4q3.2-6.15,5.4-10.45,3.8-7.9,7.7-16.8t7.1-17.65q3.2-8.75,5.45-16.9a85.19,85.19,0,0,0,2.85-14.65,47.16,47.16,0,0,0,.15-6.45,31.07,31.07,0,0,0-.65-5.25,10.72,10.72,0,0,1-.55-1.75,21.54,21.54,0,0,1-.4-2.2,12.81,12.81,0,0,1-.1-2.25,4.46,4.46,0,0,1,.55-2,2.13,2.13,0,0,1,2.2-.7,7.26,7.26,0,0,1,2.65,1.3,17.81,17.81,0,0,1,2.5,2.25,15.46,15.46,0,0,1,1.65,2q3.8,10.9,2.6,25.7a96.05,96.05,0,0,1-2.6,15q-2,8-5,16.55t-6.85,17.4q-3.9,8.85-8.35,17.55t-9.3,17q-4.85,8.3-9.85,15.7-4.2,5.9-8.95,11.9t-9.6,11.45q-4.85,5.45-9.7,10.25t-9.15,8.3q-3.1,2.4-6.4,4.55a68.29,68.29,0,0,1-6.7,3.85,40.09,40.09,0,0,1-6.9,2.7,25.1,25.1,0,0,1-6.9,1q-1.4,0-2.8-.05a11.23,11.23,0,0,1-2.2-.25,6.81,6.81,0,0,1-2.8-.95,1.55,1.55,0,0,1-.8-2,3.33,3.33,0,0,1,.45-1l.65-1v.1a16.52,16.52,0,0,0,2-2.5,11.79,11.79,0,0,0,1.5-3.2q1-2.9,2.35-8t2.85-11.8q1.5-6.7,3-14.6t3-16.35q1.4-8.45,2.55-17.1t1.85-17q.7-8.2.9-15.1t0-11.7a92.48,92.48,0,0,0-2.8-15.85,53.11,53.11,0,0,0-6.05-14.25,36.78,36.78,0,0,0-9.85-10.65,29.22,29.22,0,0,0-14.2-5.15,28.62,28.62,0,0,0-12,4.5,49.19,49.19,0,0,0-11,9.55,55.48,55.48,0,0,0-8.3,13,44,44,0,0,0-3.1,28.75,42.56,42.56,0,0,0,4.5,11.8,25.32,25.32,0,0,0,7,8,11.8,11.8,0,0,0,8.2,2.5,14.68,14.68,0,0,0,8.4-3,35,35,0,0,0,7.3-7.25A52.12,52.12,0,0,0,563.1,194a54.36,54.36,0,0,0,3.45-9.2,7.78,7.78,0,0,0-.05-.85,2.38,2.38,0,0,1,.05-.85,10.17,10.17,0,0,1,.75-2.85q.55-1.25,2.75-1.45a1.61,1.61,0,0,1,1.95,1,5.28,5.28,0,0,1,.25,2.65,12.87,12.87,0,0,1-.3,2q-.2.8-.4,1.4v-.1a2.74,2.74,0,0,0-.2.6v.2l.1-.1-.2.4-.1.1a.71.71,0,0,1,0,.3.69.69,0,0,0,0,.3h.1a60.51,60.51,0,0,1-5.55,13A55.41,55.41,0,0,1,557,212.15a42.44,42.44,0,0,1-11.25,8.25,29.06,29.06,0,0,1-13.25,3.15q-1.7,0-3.2-.1a13.27,13.27,0,0,1-2.6-.4,29.21,29.21,0,0,1-11.2-5.05,30.4,30.4,0,0,1-7.7-8.45,34,34,0,0,1-4.25-10.9,42,42,0,0,1-.65-12.5q.1-1.1.5-3.25a40.74,40.74,0,0,1,1.1-4.45,60.52,60.52,0,0,1,7.25-17.15,70.55,70.55,0,0,1,12.2-14.9,73.32,73.32,0,0,1,15.9-11.25,58.65,58.65,0,0,1,18.35-6.1q2.4-.3,4.55-.5t3.15-.2a49.94,49.94,0,0,1,15,2.2,34.76,34.76,0,0,1,12.25,6.6Z" transform="translate(-15.55 -28)"/><path class="cls-2" d="M679,190.85a15.42,15.42,0,0,0,.3-2.8,7.89,7.89,0,0,1,.2-1.9,2.06,2.06,0,0,1,1.6-1.55,5.42,5.42,0,0,1,2.6.15,17.56,17.56,0,0,1,6.1,3.3,6.18,6.18,0,0,1,1.9,4.7,15.54,15.54,0,0,1-.35,3.1q-.35,1.7-1,3.7-1,3.2-2.25,7.75t-2.45,9.6q-1.2,5.05-2.15,10t-1.45,9.2c-.07.67-.12,1.38-.15,2.15s-.05,1.42-.05,1.95a18.67,18.67,0,0,0,.7,5.65q.7,2.15,2.4,2.25a5.22,5.22,0,0,0,3.25-1.7,33.13,33.13,0,0,0,4-4.5q2.1-2.8,4.3-6.35t4.4-7.4q2.2-3.85,4.2-7.6t3.6-6.85q1.3-2.4,2.25-4.25a31.32,31.32,0,0,1,1.75-3,3.84,3.84,0,0,1,1.5-.5q1.3,0,2.5,2l-1.1,2.1q-2,4-4.5,9t-5.45,10.2q-3,5.15-6.15,10a89.45,89.45,0,0,1-6.4,8.7,36,36,0,0,1-6.4,6.1,10.57,10.57,0,0,1-6.1,2.3,11.25,11.25,0,0,1-5.85-1.4,10.76,10.76,0,0,1-3.8-3.85,17.26,17.26,0,0,1-2.05-5.7,38.91,38.91,0,0,1-.6-7q0-1.2.05-2.45t.15-2.45a104.43,104.43,0,0,1,3.4-19.25q2.6-9.45,5.7-19l1.4-4.6Zm18.1-25.7a17,17,0,0,1,1.55,3.65,9.16,9.16,0,0,1,.35,3,6.85,6.85,0,0,1-2.9,5.25,9.19,9.19,0,0,1-5.4,1.85,5.55,5.55,0,0,1-4.2-2q-1.8-1.95-1.6-6.15a11.6,11.6,0,0,1,.7-3.25,12.86,12.86,0,0,1,1.5-2.95,7.57,7.57,0,0,1,2.15-2.1,4.84,4.84,0,0,1,2.65-.8,5.19,5.19,0,0,1,2.65.8A8.27,8.27,0,0,1,697.05,165.15Z" transform="translate(-15.55 -28)"/><path class="cls-2" d="M707.35,216l6.9-13.7a12.88,12.88,0,0,1-5.85-1.85,13.15,13.15,0,0,1-4-3.9,15.67,15.67,0,0,1-2.2-5.25,18.38,18.38,0,0,1-.35-5.9,24.67,24.67,0,0,1,1.85-6.6,26.36,26.36,0,0,1,3.7-6.2,19.71,19.71,0,0,1,5.25-4.6,12.59,12.59,0,0,1,6.6-1.8q4.5,0,6.35,2.6t1.55,7.8a41.14,41.14,0,0,1-1.1,5.9q-.8,3.1-1.7,5.85t-1.75,4.95q-.85,2.2-1.25,3.3a23.37,23.37,0,0,0,4.65.7q2.25.1,4.25.1t3.75.1a6.43,6.43,0,0,1,2.8.75,3.69,3.69,0,0,1,1.65,1.95,8.71,8.71,0,0,1,.3,3.7,30.79,30.79,0,0,1-.6,3.4l-1,4.1q-.9,3.6-1.85,7.6T733.5,227q-.85,4-1.55,7.55t-1,6.3a15.36,15.36,0,0,0,.45,5.35q.65,2.15,1.75,2.35a12.65,12.65,0,0,0,4.15-3.15,50.2,50.2,0,0,0,4.8-6q2.45-3.5,5.05-7.65t4.95-8.3q2.35-4.15,4.35-8t3.5-6.65l.3-.7h-.1a10.59,10.59,0,0,1,.95-1.6,1.82,1.82,0,0,1,1.55-.6q1.3,0,2.5,2L764,210l-3.25,6.5q-1.85,3.7-4,7.8t-4.6,8.3q-2.45,4.2-4.9,8a79.48,79.48,0,0,1-5,6.95,35.65,35.65,0,0,1-4.85,5.05,17,17,0,0,1-4.75,2.8,14.82,14.82,0,0,1-5.55,1.1,6.78,6.78,0,0,1-4.4-1.45,10.75,10.75,0,0,1-3-3.9,20.8,20.8,0,0,1-1.65-5.65,43.28,43.28,0,0,1-.5-6.7c0-.73,0-1.48.05-2.25s.08-1.52.15-2.25a65.27,65.27,0,0,1,1-6.7q.8-4.2,1.9-8.75t2.3-8.75a69,69,0,0,1,2.3-6.9l-6.8-.3q-1.7,3.5-3.5,7.1l-3.5,7Zm6.2-25.1a5.7,5.7,0,0,0,.45,3.2,3.48,3.48,0,0,0,2.65,1.7L717.9,193q.85-1.95,1.7-4.4t1.55-4.95a26.9,26.9,0,0,0,.9-4.5q.1-2.1-.3-2.1-.8,0-2.1,1.35a20.52,20.52,0,0,0-2.6,3.45,30.4,30.4,0,0,0-2.3,4.55A16.19,16.19,0,0,0,713.55,190.95Z" transform="translate(-15.55 -28)"/><path class="cls-2" d="M785.55,157.95a55,55,0,0,1-.75,5.6q-.55,3-1.25,6.4a69,69,0,0,1,8.45.5,29.53,29.53,0,0,1,7.5,1.9,20.63,20.63,0,0,1,6.15,3.85,18.52,18.52,0,0,1,4.4,6.25h-.1a1.53,1.53,0,0,1-.3,1.7,1.46,1.46,0,0,1-1.9.4,21.16,21.16,0,0,0-10.25-5.65,56,56,0,0,0-13-1.45h-2.5q-1,4.5-2.15,9l-2.35,9.2-1.9,7.6-.3,1.3q-.7,2.6-1.8,7t-2.15,9.6q-1.05,5.15-1.8,10.35a66.43,66.43,0,0,0-.75,9.4,24.84,24.84,0,0,0,.45,5,4.45,4.45,0,0,0,1.65,3q.9.7,2.9.1a17.59,17.59,0,0,0,4.9-2.7A37,37,0,0,0,784.7,240a89.49,89.49,0,0,0,5.6-8.25q2.65-4.4,4.9-8.85t3.95-8.05H799q1.4-2.8,2.55-4.95a24.39,24.39,0,0,1,2.25-3.55,2.88,2.88,0,0,1,1.1-.1,2.43,2.43,0,0,1,2.3,1.9l-3.6,7.5h.1q-3.2,6.7-7,14.1a115.45,115.45,0,0,1-8.15,13.6,51.66,51.66,0,0,1-9.25,10.25,16,16,0,0,1-10.3,4.05q-8.9,0-12.4-4.4t-3.5-12.3q0-1.1.05-2.2t.15-2.3q.3-3.4,1.4-9.3t2.6-13q1.5-7.05,3.3-14.8t3.5-15l1.4-5.7q-3.4.3-6.5.5t-6,.2a34.57,34.57,0,0,1-10.7-1.5,10.33,10.33,0,0,1-6.5-5.6,5.29,5.29,0,0,1-.3-1.15,2,2,0,0,1,.1-1.1,1.08,1.08,0,0,1,.75-.6,1.9,1.9,0,0,1,1.45.45l-.1-.1a25.24,25.24,0,0,0,6.55,1.8,52.57,52.57,0,0,0,7.35.5q3.6,0,7.7-.35t8-.75q1.4-6.3,2.4-11.05t1.2-6.85a15.59,15.59,0,0,0-.05-2.85q-.15-1.15-.35-2.15c-.07-.33-.12-.65-.15-1a7.5,7.5,0,0,1,0-.85,2.16,2.16,0,0,1,1.25-1.85A6.18,6.18,0,0,1,774,144a13.82,13.82,0,0,1,6.25,1.2,9,9,0,0,1,3.6,3.15,10.44,10.44,0,0,1,1.55,4.45A26.09,26.09,0,0,1,785.55,157.95Z" transform="translate(-15.55 -28)"/></svg>