<svg id="Слой_1" data-name="Слой 1" xmlns="http://www.w3.org/2000/svg" viewBox="0 0 89.72 141.24"><defs><style>.cls-1{fill:#f0918b;}</style></defs><title>logo</title><path class="cls-1" d="M24.86,99.45a6.31,6.31,0,0,0,.76.25l.39.08h.17a3.06,3.06,0,0,0,1,.08c2.54-.12,6.8-2.39,8.64-3.44l.89-.52a15.64,15.64,0,0,1,1.52-.64h0A21.74,21.74,0,0,1,52,94.33h0a18.57,18.57,0,0,1,3.42,1.14,20.95,20.95,0,0,1,11.47,11.8C65.71,97.38,57.78,90,53,86.42A24.71,24.71,0,0,0,51,84.94h0l-.09-.06c-.83-.56-1.35-.86-1.36-.86-3.09-1.93-8.33-5-17.91-10.53C18.77,66,17.1,55.25,17.62,48.29A20.83,20.83,0,0,1,19,41.43l-.06.09a26.49,26.49,0,0,0-2.25,22.53h0c.06.17.12.35.18.55a8.09,8.09,0,0,1,.5,3.24,15.57,15.57,0,0,1-2.56,8.67l-.06.09c-.11.2-.22.39-.34.58a6.21,6.21,0,0,0-.69,1.6c-.27,1.66,1.38,2.15,2.25,2.29h.39l.26,0h.06a2.27,2.27,0,0,1,1.48,1v.06a2.48,2.48,0,0,1,.22,1,1.6,1.6,0,0,1-.32,1l-.11.13-.16.14a1.63,1.63,0,0,1-.26.17h-.12l-.33.11A2.26,2.26,0,0,0,19,87.32a5.3,5.3,0,0,0,1.18.14,1.8,1.8,0,0,0-1.27,2.25,2.66,2.66,0,0,0,.19.48,1.87,1.87,0,0,0,1.72,1c1.27,0,1.54-.41,1.55,1.55a14.37,14.37,0,0,0,.26,3.77,4,4,0,0,0,2.24,2.64Z" transform="translate(-13.67 -6)"/><path class="cls-1" d="M30.89,67.91a73.75,73.75,0,0,0,9.5,6.47l1.13.62c1.17.63,2.4,1.25,3.69,1.87l.42.21,1,.52c1.44.72,2.78,1.46,4.06,2.21,0,0,.48.25,1.28.73s2.2,1.36,3.71,2.46c.46.34.95.7,1.45,1.09a42.27,42.27,0,0,1,9.12,9.6,27.29,27.29,0,0,1,3.53,7.38h0a34.62,34.62,0,0,1,1.63,6.48,36.06,36.06,0,0,1,.39,6.83,29,29,0,0,1-.9,6.47h0a46.92,46.92,0,0,0,4.88-9.95l.1-.23a30.53,30.53,0,0,0,0-22.77c-.47-1.25-1-2.36-1.44-3.31a27.45,27.45,0,0,0-2.15-3.7h0c-4.71-7-12.08-11.88-19.52-15.81l-.84-.45c-2-1-4-2-5.88-2.92l-.48-.23c-2-1-3.88-1.86-5.69-2.76a47.61,47.61,0,0,1-9.36-5.65c-9.09-7.73-4.1-18.42-1.65-22.51.35-.56.7-1.11,1.1-1.69a24.7,24.7,0,0,0-7.68,7.75,20,20,0,0,0-1.2,2.28l-.2.46-.12.32a20.84,20.84,0,0,0-1.17,7.94c.23,5.49,2.57,12.91,11.21,20.26Z" transform="translate(-13.67 -6)"/><path class="cls-1" d="M103.29,96.87c-.09-.86-.22-1.71-.36-2.54-2-12-9.38-21.68-17.82-29.07a91.26,91.26,0,0,0-10.8-8.07A112.61,112.61,0,0,0,59.74,49.3h0c-1.68-.71-3.37-1.57-5-2.42C49,43.82,43.31,40.51,40.93,34.22a20.57,20.57,0,0,1-.32-11c1.14-4.24,4.78-12.93,15.71-15A21.08,21.08,0,0,1,61,7.86a15.82,15.82,0,0,1,8.27,2.56c6.84,4.56,8.18,13.65,1.67,19-4,4.18-13.8,3.77-15.54-3.57a8.92,8.92,0,0,1-.06-3.55,3.28,3.28,0,0,1,.11-.53,4.45,4.45,0,0,1,.11-.52,6.68,6.68,0,0,1,1.24-2.18,9.83,9.83,0,0,1,1.61-1.5,6.89,6.89,0,0,1,1.5-.87A8,8,0,0,0,52.77,23c-.77,6,3.28,10.9,9,12.44a17.73,17.73,0,0,0,9.8-.15A13.06,13.06,0,0,0,80.22,25c.72-8.5-5.08-19.08-22.75-19-13,.07-19.6,7.29-22.85,13.19-7.73,16.22,4.87,30.66,19,37.27C61,60.06,69.86,66.91,75.4,72.68c1.52,1.64,15.7,17.71,11.65,41.4-3.12,12.81-11.53,29.68-34.2,30A25.51,25.51,0,0,1,40.65,140c-8.52-5.68-11.83-16-8.21-24l.07-.15a20.15,20.15,0,0,1,5.42-6.9v0a15.6,15.6,0,0,1,7.7-3.74c7.07-1.44,13.88,0,16.91,7.29a15.17,15.17,0,0,1,.75,2.28,14.75,14.75,0,0,1,.09,5.79c-.89,3.62-2,5.49-5,7.71a11.2,11.2,0,0,1-2.45,1.41c9-.82,11.29-8.69,11.67-10.34a16.86,16.86,0,0,0-.58-7.13,18.84,18.84,0,0,0-.94-2.47C63.45,104,59,100.65,53,99a28.69,28.69,0,0,0-5.64-.94c-.58,0-1.13-.06-1.71-.07-11.13-.08-21.17,6.47-22.81,18.24-1.17,13.86,8.29,31.12,37.1,31,18.41-.1,29-9,34.9-17.67l.06-.08c8.78-11.85,8.78-26.75,8.37-32.59Z" transform="translate(-13.67 -6)"/></svg>