<svg width="197" height="142" viewBox="0 0 197 142" fill="none" xmlns="http://www.w3.org/2000/svg">
<path fill-rule="evenodd" clip-rule="evenodd" d="M118.189 93.4505C118.437 93.5498 118.691 93.6333 118.95 93.7005L119.339 93.7805H119.51C119.836 93.862 120.174 93.889 120.51 93.8604C123.05 93.7404 127.309 91.4705 129.149 90.4205L130.04 89.9005C130.535 89.6605 131.042 89.4469 131.559 89.2605V89.2605C135.921 87.4675 140.747 87.1411 145.309 88.3304V88.3304C146.484 88.5986 147.629 88.9804 148.73 89.4705C151.339 90.5608 153.701 92.1685 155.672 94.1965C157.644 96.2245 159.184 98.6309 160.2 101.27C159.04 91.3804 151.109 84.0005 146.379 80.4205C145.715 79.892 145.024 79.398 144.309 78.9405V78.9405L144.219 78.8805C143.389 78.3205 142.87 78.0204 142.86 78.0204C139.77 76.0904 134.53 73.0204 124.95 67.4904C112.1 60.0304 110.43 49.2505 110.95 42.2905C111.013 39.9435 111.473 37.6242 112.309 35.4305L112.249 35.5204C110.233 38.8762 108.985 42.6373 108.596 46.533C108.207 50.4287 108.686 54.3622 109.999 58.0504V58.0504C110.059 58.2204 110.119 58.4005 110.179 58.6005C110.565 59.6351 110.735 60.7377 110.679 61.8405C110.702 64.92 109.811 67.9372 108.119 70.5105L108.059 70.6005C107.949 70.8005 107.839 70.9905 107.719 71.1805C107.415 71.6784 107.183 72.2171 107.029 72.7805C106.759 74.4405 108.409 74.9305 109.279 75.0705H109.67L109.929 75.1205H109.99C110.291 75.1784 110.578 75.2969 110.832 75.4688C111.086 75.6407 111.303 75.8623 111.469 76.1205V76.1805C111.611 76.495 111.686 76.8355 111.689 77.1805C111.698 77.5402 111.585 77.8922 111.369 78.1805L111.26 78.3105L111.099 78.4505C111.018 78.5153 110.931 78.5722 110.839 78.6205V78.6205H110.719C110.613 78.6659 110.502 78.7027 110.39 78.7305C110.343 79.0262 110.355 79.3283 110.426 79.6192C110.497 79.9101 110.625 80.1839 110.803 80.4249C110.981 80.6659 111.204 80.8691 111.461 81.0229C111.718 81.1766 112.003 81.2778 112.3 81.3205C112.686 81.4111 113.082 81.4581 113.48 81.4604C113.246 81.5216 113.028 81.6289 112.837 81.776C112.646 81.9231 112.487 82.107 112.369 82.3168C112.25 82.5266 112.175 82.7581 112.148 82.9975C112.12 83.2369 112.141 83.4793 112.209 83.7104C112.257 83.8764 112.32 84.0372 112.399 84.1905C112.563 84.5021 112.811 84.7613 113.115 84.9382C113.42 85.1151 113.768 85.2025 114.119 85.1905C115.389 85.1905 115.66 84.7804 115.67 86.7404C115.59 88.0031 115.677 89.2707 115.929 90.5105C116.081 91.0902 116.361 91.6284 116.749 92.0854C117.137 92.5423 117.622 92.9063 118.17 93.1505L118.189 93.4505Z" fill="#F0918B"/>
<path fill-rule="evenodd" clip-rule="evenodd" d="M124.219 61.9105C127.213 64.3112 130.389 66.4745 133.719 68.3805L134.849 69.0005C136.019 69.6305 137.249 70.2505 138.539 70.8705L138.959 71.0804L139.959 71.6005C141.399 72.3205 142.739 73.0605 144.019 73.8105C144.019 73.8105 144.499 74.0605 145.299 74.5405C146.099 75.0205 147.499 75.9005 149.009 77.0005C149.469 77.3405 149.959 77.7005 150.459 78.0905C153.985 80.7918 157.062 84.0315 159.579 87.6905C161.12 89.9595 162.31 92.4473 163.109 95.0705V95.0705C163.86 97.173 164.406 99.343 164.739 101.55C165.085 103.81 165.216 106.097 165.129 108.38C165.074 110.564 164.772 112.735 164.229 114.85V114.85C166.243 111.738 167.881 108.398 169.109 104.9L169.209 104.67C172.145 97.3643 172.145 89.2067 169.209 81.9005C168.739 80.6505 168.209 79.5405 167.769 78.5905C167.15 77.3034 166.431 76.0664 165.619 74.8905V74.8905C160.909 67.8905 153.539 63.0104 146.099 59.0804L145.259 58.6305C143.259 57.6305 141.259 56.6304 139.379 55.7104L138.899 55.4805C136.899 54.5305 135.019 53.6205 133.209 52.7205C129.883 51.2031 126.742 49.3073 123.849 47.0705C114.759 39.3405 119.749 28.6505 122.199 24.5605C122.549 24.0005 122.899 23.4505 123.299 22.8705C120.194 24.8487 117.569 27.4967 115.619 30.6205C115.17 31.3536 114.77 32.1152 114.419 32.9005L114.219 33.3604L114.099 33.6805C113.198 36.2263 112.801 38.923 112.929 41.6205C113.159 47.1105 115.499 54.5305 124.139 61.8805L124.219 61.9105Z" fill="#F0918B"/>
<path fill-rule="evenodd" clip-rule="evenodd" d="M196.619 90.8704C196.529 90.0104 196.399 89.1604 196.259 88.3304C194.259 76.3304 186.879 66.6505 178.439 59.2605C175.043 56.3079 171.433 53.6106 167.639 51.1905C162.983 48.2064 158.113 45.5692 153.069 43.3004V43.3004C151.389 42.5904 149.699 41.7305 148.069 40.8805C142.309 37.8205 136.639 34.5105 134.259 28.2205C133.155 24.651 133.045 20.8481 133.939 17.2205C135.079 12.9805 138.719 4.29045 149.649 2.22045C151.198 1.92511 152.774 1.80434 154.349 1.86044C157.291 1.92824 160.154 2.81479 162.619 4.42046C169.459 8.98046 170.799 18.0705 164.289 23.4205C160.289 27.6005 150.489 27.1905 148.749 19.8505C148.491 18.6832 148.471 17.4758 148.689 16.3004C148.689 16.1004 148.779 15.9204 148.799 15.7704C148.819 15.6204 148.859 15.4405 148.909 15.2505C149.181 14.4517 149.602 13.7119 150.149 13.0705C150.628 12.5117 151.168 12.0086 151.759 11.5705C152.221 11.2182 152.725 10.9258 153.259 10.7005C151.542 10.8452 149.918 11.5404 148.628 12.6828C147.338 13.8251 146.451 15.3535 146.099 17.0405C145.329 23.0405 149.379 27.9405 155.099 29.4805C158.315 30.3523 161.712 30.3003 164.899 29.3304C167.144 28.5573 169.135 27.1871 170.659 25.367C172.183 23.5469 173.183 21.3459 173.549 19.0005C174.269 10.5005 168.469 -0.079549 150.799 0.000450957C137.799 0.070451 131.199 7.29045 127.949 13.1905C120.219 29.4105 132.819 43.8504 146.949 50.4604C154.299 54.0604 163.189 60.9104 168.729 66.6804C170.249 68.3204 184.429 84.3904 180.379 108.08C177.259 120.89 168.849 137.76 146.179 138.08C141.831 137.785 137.631 136.38 133.979 134C125.459 128.32 122.149 118 125.769 110L125.839 109.85C127.117 107.18 128.967 104.824 131.259 102.95V102.9C133.427 100.96 136.094 99.6647 138.959 99.1605C146.029 97.7205 152.839 99.1605 155.869 106.45C156.179 107.19 156.43 107.952 156.619 108.73C157.031 110.636 157.062 112.603 156.709 114.52C155.819 118.14 154.709 120.01 151.709 122.23C150.955 122.802 150.132 123.275 149.259 123.64C158.259 122.82 160.549 114.95 160.929 113.3C161.248 110.91 161.05 108.478 160.349 106.17C160.094 105.326 159.78 104.501 159.409 103.7C156.779 97.9605 152.349 94.6505 146.319 93.0105C144.475 92.5102 142.586 92.1953 140.679 92.0705C140.099 92.0705 139.549 92.0105 138.969 92.0005C127.839 91.9205 117.799 98.4704 116.159 110.24C114.989 124.1 124.449 141.36 153.259 141.24C171.669 141.14 182.259 132.24 188.159 123.57L188.219 123.49C196.999 111.64 196.999 96.7404 196.589 90.9004L196.619 90.8704Z" fill="#F0918B"/>
<path d="M15.15 119.66C12.61 119.144 10.1625 118.247 7.89002 117C6.07409 115.995 4.45743 114.667 3.12003 113.08C1.96279 111.69 1.10489 110.077 0.600026 108.34C0.125324 106.68 -0.0706725 104.954 0.0200257 103.23C0.112058 101.36 0.514201 99.5182 1.21002 97.78C1.8937 96.0551 2.83434 94.4436 4.00003 93C5.51989 91.2861 7.39278 89.9215 9.49002 89C11.4458 88.1024 13.5683 87.6254 15.72 87.6C17.1518 87.5981 18.5752 87.8173 19.94 88.25C21.2684 88.6602 22.5069 89.3185 23.59 90.19C24.6766 91.0786 25.5685 92.1815 26.21 93.43C26.9187 94.8177 27.3372 96.3352 27.44 97.89C27.4431 99.5324 27.1025 101.157 26.44 102.66C28.142 101.437 30.0156 100.474 32 99.8C34.1816 99.0577 36.4282 98.522 38.71 98.2C40.1303 95.4339 41.3924 92.5893 42.49 89.68C43.65 86.6333 44.7167 83.58 45.69 80.52C46.6634 77.46 47.55 74.46 48.35 71.52C49.1434 68.5933 49.86 65.9267 50.5 63.52C50.5934 63.2933 50.6734 63.0667 50.74 62.84C50.8067 62.6133 50.8634 62.3867 50.91 62.16C49.8701 62.515 48.7985 62.7695 47.71 62.92C46.6488 63.0557 45.5799 63.1225 44.51 63.12C43.3027 63.1206 42.0967 63.0404 40.9 62.88C39.72 62.72 38.5834 62.5267 37.49 62.3C34.4824 61.6741 31.6531 60.3825 29.21 58.52C26.9665 56.7821 25.0616 54.6466 23.59 52.22C22.123 49.7749 21.0657 47.1064 20.46 44.32C19.824 41.4595 19.5718 38.5271 19.71 35.6C19.8459 32.6055 20.4082 29.6457 21.38 26.81C22.3208 24.0267 23.6687 21.3982 25.38 19.01C27.0315 16.7001 29.084 14.7051 31.44 13.12C33.85 11.5124 36.579 10.4446 39.44 9.99C39.8535 9.89236 40.2755 9.83544 40.7 9.82002H41.96C44.2381 9.77816 46.4935 10.2786 48.54 11.28C50.3816 12.1864 52.0263 13.4472 53.38 14.99C54.638 16.424 55.5998 18.0927 56.21 19.9C56.7898 21.4994 56.9549 23.2196 56.69 24.9C56.19 25.9933 55.7134 26.5267 55.26 26.5C54.7641 26.4516 54.304 26.2198 53.97 25.85C53.9593 24.4913 53.7401 23.1422 53.32 21.85C52.9981 20.8793 52.5146 19.9699 51.89 19.16C51.4063 18.5279 50.8053 17.9949 50.12 17.59C49.5739 17.2751 48.989 17.033 48.38 16.87C47.614 16.7357 46.8377 16.6688 46.06 16.67C43.7435 16.6414 41.473 17.318 39.55 18.61C37.5855 19.9295 35.9057 21.6297 34.61 23.61C33.1969 25.7742 32.1055 28.1321 31.37 30.61C30.5786 33.2095 30.1084 35.8962 29.97 38.61C29.8782 40.3583 29.9351 42.1113 30.14 43.85C30.3306 45.5138 30.696 47.1528 31.23 48.74C31.7215 50.2232 32.3932 51.6405 33.23 52.96C33.9993 54.1448 34.9828 55.1758 36.13 56C37.3762 56.9203 38.7554 57.6452 40.22 58.15C41.7537 58.702 43.3701 58.9894 45 59C46.253 58.984 47.4992 58.8127 48.71 58.49C50.0418 58.1524 51.351 57.7316 52.63 57.23L54.81 49.61C55.9434 45.35 57.1467 41.06 58.42 36.74C59.6231 32.6254 61.0316 28.5737 62.64 24.6C64.0479 21.076 65.7821 17.6913 67.82 14.49C69.5009 11.7719 71.7279 9.43252 74.36 7.62001C75.9908 6.67617 77.7302 5.93407 79.54 5.41002C81.3754 4.8535 83.2821 4.56716 85.2 4.56001C87.315 4.53368 89.4015 5.05012 91.26 6.06001C92.188 6.59092 92.9948 7.30997 93.6285 8.17103C94.2623 9.03209 94.709 10.0161 94.94 11.06C95.2692 12.4413 95.4072 13.8612 95.35 15.28C95.1491 17.7978 94.5971 20.2751 93.71 22.64C92.6811 25.482 91.4271 28.2374 89.96 30.88C88.3662 33.7747 86.6031 36.5729 84.68 39.26C82.7534 41.9683 80.6838 44.572 78.48 47.06C76.4561 49.3394 74.2919 51.4902 72 53.5C70.1215 55.1922 68.0663 56.6775 65.87 57.93L63.87 65.93C63.2034 68.3367 62.5367 70.88 61.87 73.56C61.2034 76.24 60.4534 78.9534 59.62 81.7C58.8 84.4467 57.89 87.2067 56.89 89.98C55.9011 92.7073 54.7627 95.378 53.48 97.98C56.4564 98.1963 59.4078 98.6749 62.3 99.41C65.14 100.137 68.08 100.977 71.12 101.93C75.9003 103.477 80.543 105.421 85 107.74C89.1233 109.826 93.0177 112.336 96.62 115.23C99.7138 117.684 102.383 120.63 104.52 123.95C106.371 126.751 107.288 130.066 107.14 133.42C107.093 133.827 107.047 134.27 107 134.75C106.965 135.174 106.898 135.596 106.8 136.01C106.659 136.489 106.454 136.946 106.19 137.37C105.846 137.95 105.448 138.496 105 139C104.58 139.489 104.1 139.923 103.57 140.29C103.393 140.439 103.187 140.548 102.964 140.612C102.742 140.676 102.509 140.692 102.28 140.66C102.132 140.626 101.995 140.559 101.877 140.463C101.759 140.368 101.664 140.247 101.6 140.11C101.462 139.832 101.38 139.53 101.36 139.22C101.323 138.888 101.323 138.552 101.36 138.22C101.388 137.961 101.455 137.708 101.56 137.47C101.62 135.767 101.144 134.089 100.2 132.67C99.0632 130.89 97.702 129.263 96.15 127.83C94.2852 126.098 92.2781 124.526 90.15 123.13C87.8767 121.61 85.5134 120.157 83.06 118.77C80.6067 117.383 78.13 116.09 75.63 114.89C73.13 113.683 70.7967 112.617 68.63 111.69C66.4634 110.763 64.52 109.98 62.8 109.34C61.0934 108.673 59.81 108.243 58.95 108.05C58.09 107.857 57.34 107.607 56.7 107.3C56.0334 107.12 55.4434 106.973 54.93 106.86C54.4167 106.747 53.8934 106.657 53.36 106.59L51.72 106.35C51.3041 106.26 50.8835 106.193 50.46 106.15C50.0267 106.103 49.54 106.037 49 105.95C47.2772 108.079 45.3104 109.999 43.14 111.67C40.9214 113.39 38.5362 114.885 36.02 116.13C33.5351 117.365 30.9319 118.347 28.25 119.06C25.6838 119.753 23.0382 120.11 20.38 120.12C19.4734 120.12 18.5767 120.087 17.69 120.02C16.8096 119.954 15.9344 119.83 15.07 119.65L15.15 119.66ZM67.48 51.73C69.1297 50.9588 70.6562 49.9479 72.01 48.73C73.7989 47.1507 75.47 45.4428 77.01 43.62C78.7904 41.5397 80.4594 39.3667 82.01 37.11C83.6163 34.7932 85.0823 32.3822 86.4 29.89C87.6429 27.5516 88.7124 25.1251 89.6 22.63C90.3895 20.4972 90.8612 18.26 91 15.99C91.1113 14.6824 90.9721 13.3655 90.59 12.11C90.3252 11.1658 89.7644 10.3316 88.99 9.73002C88.6144 9.47646 88.1906 9.30296 87.745 9.22038C87.2994 9.1378 86.8416 9.14789 86.4 9.25001C85.1359 9.56011 83.9744 10.1943 83.03 11.09C80.713 13.1605 78.7858 15.6295 77.34 18.38C75.7488 21.3451 74.3946 24.4314 73.29 27.61C72.1689 30.8124 71.2372 34.0781 70.5 37.39C69.7734 40.6634 69.1367 43.5933 68.59 46.18L67.43 51.77L67.48 51.73ZM19.3 110.18C19.85 109.49 20.39 108.74 20.94 107.92C21.4883 107.092 21.9891 106.234 22.44 105.35C22.8843 104.485 23.2588 103.585 23.56 102.66C23.8491 101.773 24.0206 100.852 24.07 99.92C24.1112 99.1871 24.0642 98.4518 23.93 97.73C23.6158 96.2132 22.7272 94.8766 21.45 94C20.2522 93.1968 18.8422 92.7686 17.4 92.77C16.2361 92.7771 15.0871 93.0328 14.03 93.52C12.937 94.001 11.9689 94.7263 11.2 95.64C10.2742 96.7124 9.56753 97.9558 9.12003 99.3C8.64965 100.656 8.36375 102.068 8.27003 103.5C8.18926 105.573 8.52944 107.642 9.27003 109.58C9.93685 111.467 11.2374 113.064 12.95 114.1C13.9053 114.738 14.9501 115.23 16.05 115.56C17.024 115.849 18.0342 115.997 19.05 116C20.6034 115.985 22.1364 115.644 23.55 115C25.0349 114.342 26.4323 113.502 27.71 112.5C29.0405 111.466 30.2816 110.322 31.42 109.08C32.5444 107.875 33.6027 106.61 34.59 105.29C32.1306 105.499 29.729 106.15 27.5 107.21C25.5586 108.115 23.9423 109.596 22.87 111.45C22.5457 111.749 22.1436 111.95 21.71 112.03C21.3233 112.099 20.9256 112.075 20.55 111.96C20.1965 111.855 19.885 111.642 19.66 111.35C19.4275 111.026 19.3307 110.624 19.39 110.23V110.16L19.3 110.18Z" fill="#F0918B"/>
</svg>
