<svg id="Слой_1" data-name="Слой 1" xmlns="http://www.w3.org/2000/svg" viewBox="0 0 567.73 158.16"><defs><style>.cls-1,.cls-2{fill:#f0918b;}.cls-1{fill-rule:evenodd;}</style></defs><title>logo_ladysecrets</title><path class="cls-1" d="M287.34,410.45a6.29,6.29,0,0,0,.76.25l.39.08.17,0a3.06,3.06,0,0,0,1,.08c2.54-.12,6.8-2.39,8.64-3.44l.89-.52h0a15.6,15.6,0,0,1,1.52-.64h0a21.74,21.74,0,0,1,13.75-.93h0a18.56,18.56,0,0,1,3.42,1.14,20.94,20.94,0,0,1,11.47,11.8c-1.16-9.89-9.09-17.27-13.82-20.85a24.79,24.79,0,0,0-2.07-1.48h0l-.09-.06c-.83-.56-1.35-.86-1.36-.86-3.09-1.93-8.33-5-17.91-10.53-12.85-7.46-14.52-18.24-14-25.2a20.85,20.85,0,0,1,1.36-6.86l-.06.09,0,0a26.49,26.49,0,0,0-2.25,22.53v0c.06.17.12.35.18.55a8.1,8.1,0,0,1,.5,3.24,15.57,15.57,0,0,1-2.56,8.67l-.06.09c-.11.2-.22.39-.34.58a6.16,6.16,0,0,0-.69,1.6c-.27,1.66,1.38,2.15,2.25,2.29h0l.39,0,.26.05h.06a2.27,2.27,0,0,1,1.48,1l0,.06v0l0,0a2.5,2.5,0,0,1,.22,1,1.61,1.61,0,0,1-.32,1l-.11.13-.16.14a1.63,1.63,0,0,1-.26.17l0,0-.12,0a2.16,2.16,0,0,1-.33.11,2.26,2.26,0,0,0,1.91,2.59,5.31,5.31,0,0,0,1.18.14,1.8,1.8,0,0,0-1.27,2.25,2.58,2.58,0,0,0,.19.48,1.87,1.87,0,0,0,1.72,1c1.27,0,1.54-.41,1.55,1.55h0a14.38,14.38,0,0,0,.26,3.77,4,4,0,0,0,2.24,2.64Z" transform="translate(-22 -317)"/><path class="cls-1" d="M293.37,378.91a73.68,73.68,0,0,0,9.5,6.47L304,386c1.17.63,2.4,1.25,3.69,1.87l.42.21,1,.52c1.44.72,2.78,1.46,4.06,2.21l0,0s.48.25,1.28.73,2.2,1.36,3.71,2.46c.46.34.95.7,1.45,1.09a42.3,42.3,0,0,1,9.12,9.6,27.34,27.34,0,0,1,3.53,7.38v0a34.69,34.69,0,0,1,1.63,6.48,36.16,36.16,0,0,1,.39,6.83,29,29,0,0,1-.9,6.47h0a47,47,0,0,0,4.88-9.95l.1-.23a30.54,30.54,0,0,0,0-22.77c-.47-1.25-1-2.36-1.44-3.31a27.64,27.64,0,0,0-2.15-3.7h0c-4.71-7-12.08-11.88-19.52-15.81l-.84-.45c-2-1-4-2-5.88-2.92l-.48-.23c-2-.95-3.88-1.86-5.69-2.76a47.57,47.57,0,0,1-9.36-5.65c-9.09-7.73-4.1-18.42-1.65-22.51.35-.56.7-1.11,1.1-1.69h0a24.69,24.69,0,0,0-7.68,7.75,19.83,19.83,0,0,0-1.2,2.28l-.2.46-.12.32a20.83,20.83,0,0,0-1.17,7.94c.23,5.49,2.57,12.91,11.21,20.26Z" transform="translate(-22 -317)"/><path class="cls-1" d="M365.77,407.87h0c-.09-.86-.22-1.71-.36-2.54-2-12-9.38-21.68-17.82-29.07a91.28,91.28,0,0,0-10.8-8.07,112.66,112.66,0,0,0-14.57-7.89h0c-1.68-.71-3.37-1.57-5-2.42-5.76-3.06-11.43-6.37-13.81-12.66a20.56,20.56,0,0,1-.32-11c1.14-4.24,4.78-12.93,15.71-15a21.08,21.08,0,0,1,4.7-.36,15.82,15.82,0,0,1,8.27,2.56c6.84,4.56,8.18,13.65,1.67,19l0,0c-4,4.18-13.8,3.77-15.54-3.57a8.9,8.9,0,0,1-.06-3.55c0-.2.09-.38.11-.53s.06-.33.11-.52a6.65,6.65,0,0,1,1.24-2.18,9.82,9.82,0,0,1,1.61-1.5,6.86,6.86,0,0,1,1.5-.87,8,8,0,0,0-7.16,6.34c-.77,6,3.28,10.9,9,12.44a17.73,17.73,0,0,0,9.8-.15A13.06,13.06,0,0,0,342.7,336c.72-8.5-5.08-19.08-22.75-19-13,.07-19.6,7.29-22.85,13.19-7.73,16.22,4.87,30.66,19,37.27h0c7.35,3.6,16.24,10.45,21.78,16.22,1.52,1.64,15.7,17.71,11.65,41.4-3.12,12.81-11.53,29.68-34.2,30A25.51,25.51,0,0,1,303.13,451c-8.52-5.68-11.83-16-8.21-24l.07-.15a20.12,20.12,0,0,1,5.42-6.9l0-.05a15.6,15.6,0,0,1,7.7-3.74c7.07-1.44,13.88,0,16.91,7.29a15.21,15.21,0,0,1,.75,2.28,14.76,14.76,0,0,1,.09,5.79c-.89,3.62-2,5.49-5,7.71a11.24,11.24,0,0,1-2.45,1.41c9-.82,11.29-8.69,11.67-10.34a16.87,16.87,0,0,0-.58-7.13,19.08,19.08,0,0,0-.94-2.47c-2.63-5.74-7.06-9.05-13.09-10.69a28.71,28.71,0,0,0-5.64-.94c-.58,0-1.13-.06-1.71-.07-11.13-.08-21.17,6.47-22.81,18.24-1.17,13.86,8.29,31.12,37.1,31,18.41-.1,29-9,34.9-17.67l.06-.08c8.78-11.85,8.78-26.75,8.37-32.59Z" transform="translate(-22 -317)"/><path class="cls-2" d="M37.15,444.66A25.77,25.77,0,0,1,29.89,442a17,17,0,0,1-4.77-3.92,13.14,13.14,0,0,1-2.52-4.74,15.6,15.6,0,0,1-.58-5.11,16.9,16.9,0,0,1,1.19-5.45A18.4,18.4,0,0,1,26,418a15.87,15.87,0,0,1,5.49-4,15.37,15.37,0,0,1,6.23-1.4,13.9,13.9,0,0,1,4.22.65,11,11,0,0,1,3.65,1.94,10.22,10.22,0,0,1,2.62,3.24,11.47,11.47,0,0,1,1.23,4.46,11.77,11.77,0,0,1-1,4.77A21.22,21.22,0,0,1,54,424.8a36.79,36.79,0,0,1,6.71-1.6,82.11,82.11,0,0,0,3.78-8.52q1.74-4.57,3.2-9.16t2.66-9q1.19-4.39,2.15-8,.14-.34.24-.68t.17-.68a17.2,17.2,0,0,1-3.2.76,24.79,24.79,0,0,1-3.2.2,27.08,27.08,0,0,1-3.61-.24q-1.77-.24-3.41-.58a20.57,20.57,0,0,1-8.28-3.78,23.16,23.16,0,0,1-5.62-6.3,26.15,26.15,0,0,1-3.13-7.9,33,33,0,0,1-.75-8.72,31.52,31.52,0,0,1,1.67-8.79,29.74,29.74,0,0,1,4-7.8,23.74,23.74,0,0,1,6.06-5.89,20.1,20.1,0,0,1,8-3.13,6.51,6.51,0,0,1,1.26-.17l1.26,0a14.37,14.37,0,0,1,6.58,1.46,15.61,15.61,0,0,1,4.84,3.71,14.46,14.46,0,0,1,2.83,4.91,10.07,10.07,0,0,1,.48,5q-.75,1.64-1.43,1.6a2,2,0,0,1-1.29-.65,13.28,13.28,0,0,0-.65-4,9.09,9.09,0,0,0-1.43-2.69,6.2,6.2,0,0,0-1.77-1.57,7.22,7.22,0,0,0-1.74-.72,13.31,13.31,0,0,0-2.32-.2,11.42,11.42,0,0,0-6.51,1.94,17.69,17.69,0,0,0-4.94,5,26.7,26.7,0,0,0-3.24,7,33.29,33.29,0,0,0-1.4,8,30.91,30.91,0,0,0,.17,5.24,23.84,23.84,0,0,0,1.09,4.89,19.09,19.09,0,0,0,2,4.22A11.36,11.36,0,0,0,58.13,381a15.25,15.25,0,0,0,4.09,2.15A14.39,14.39,0,0,0,67,384a15.16,15.16,0,0,0,3.71-.51,32.85,32.85,0,0,0,3.92-1.26l2.18-7.62q1.7-6.39,3.61-12.87a128.38,128.38,0,0,1,4.22-12.14,60.9,60.9,0,0,1,5.18-10.11,23.08,23.08,0,0,1,6.54-6.87,23.25,23.25,0,0,1,5.18-2.21,19.76,19.76,0,0,1,5.66-.85,12.37,12.37,0,0,1,6.06,1.5,7.67,7.67,0,0,1,3.68,5,15.51,15.51,0,0,1,.41,4.22,27.09,27.09,0,0,1-1.64,7.36,56.85,56.85,0,0,1-3.75,8.24,84.09,84.09,0,0,1-5.28,8.38,93.57,93.57,0,0,1-6.2,7.8A73.28,73.28,0,0,1,94,378.5a35.25,35.25,0,0,1-6.13,4.43l-2,8q-1,3.61-2,7.63t-2.25,8.14q-1.23,4.12-2.73,8.28a79,79,0,0,1-3.41,8,50.73,50.73,0,0,1,8.82,1.43q4.26,1.09,8.82,2.52A90.31,90.31,0,0,1,107,432.74a66.43,66.43,0,0,1,11.62,7.49,36,36,0,0,1,7.9,8.72,15.91,15.91,0,0,1,2.62,9.47q-.07.61-.14,1.33a8.62,8.62,0,0,1-.2,1.26,5.54,5.54,0,0,1-.61,1.36A10.55,10.55,0,0,1,127,464a7.54,7.54,0,0,1-1.43,1.29,1.65,1.65,0,0,1-1.29.37,1,1,0,0,1-.68-.55,2.33,2.33,0,0,1-.24-.89,4.48,4.48,0,0,1,0-1,2.52,2.52,0,0,1,.2-.75,8.15,8.15,0,0,0-1.36-4.8,24.63,24.63,0,0,0-4.05-4.84,45.44,45.44,0,0,0-6-4.7q-3.41-2.28-7.09-4.36t-7.43-3.88q-3.75-1.81-7-3.2t-5.83-2.35q-2.56-1-3.85-1.29t-2.25-.75q-1-.27-1.77-.44t-1.57-.27l-1.64-.24a11.25,11.25,0,0,0-1.26-.2q-.65-.07-1.46-.2a35,35,0,0,1-5.86,5.72,42.08,42.08,0,0,1-7.12,4.46,41.27,41.27,0,0,1-7.77,2.93,30.64,30.64,0,0,1-7.87,1.06q-1.36,0-2.69-.1a20.25,20.25,0,0,1-2.62-.37Zm52.33-67.93a18.47,18.47,0,0,0,4.53-3,49,49,0,0,0,5-5.11,77.6,77.6,0,0,0,5-6.51,70.55,70.55,0,0,0,4.39-7.22,54.12,54.12,0,0,0,3.2-7.26,23.21,23.21,0,0,0,1.4-6.64,10.32,10.32,0,0,0-.41-3.88,4.58,4.58,0,0,0-1.6-2.38,3.3,3.3,0,0,0-2.59-.48,7.49,7.49,0,0,0-3.37,1.84,26,26,0,0,0-5.69,7.29,63.82,63.82,0,0,0-4.05,9.23,86.43,86.43,0,0,0-2.79,9.78q-1.09,4.91-1.91,8.79l-1.16,5.59ZM41.3,435.18c.55-.69,1.09-1.44,1.64-2.26a26.23,26.23,0,0,0,1.5-2.57,18.3,18.3,0,0,0,1.12-2.69,10.67,10.67,0,0,0,.51-2.74,9.17,9.17,0,0,0-.14-2.19A6,6,0,0,0,43.45,419a7.26,7.26,0,0,0-4.05-1.23,8.17,8.17,0,0,0-3.37.75,7.81,7.81,0,0,0-2.83,2.12,10.84,10.84,0,0,0-2.08,3.66,16,16,0,0,0-.85,4.2,15.36,15.36,0,0,0,1,6.08,8.65,8.65,0,0,0,3.68,4.52,11.59,11.59,0,0,0,3.1,1.46,10.67,10.67,0,0,0,3,.44,11.11,11.11,0,0,0,4.5-1,19.6,19.6,0,0,0,4.16-2.5,30,30,0,0,0,3.71-3.42,45.58,45.58,0,0,0,3.17-3.79,20.57,20.57,0,0,0-7.09,1.92,10.45,10.45,0,0,0-4.63,4.24,2.34,2.34,0,0,1-1.16.58,2.47,2.47,0,0,1-1.16-.07,1.75,1.75,0,0,1-.89-.61,1.53,1.53,0,0,1-.27-1.12v-.07Zm96.21-45.71a1.57,1.57,0,0,1-.78.41,3.59,3.59,0,0,1-.92.2,1.77,1.77,0,0,1-1.43-.82,7.57,7.57,0,0,0,.37-1.4q.1-.65.24-1.4a17.76,17.76,0,0,0-.24-3.58,10.55,10.55,0,0,0-1.12-3.37,7.75,7.75,0,0,0-2.11-2.49,5,5,0,0,0-3.13-1,8,8,0,0,0-4.84,1.87,25.15,25.15,0,0,0-4.7,4.84,50.53,50.53,0,0,0-4.22,6.64q-2,3.68-3.51,7.32a67.43,67.43,0,0,0-2.49,6.85,25.19,25.19,0,0,0-1.09,5.18,20,20,0,0,0,0,2,6.32,6.32,0,0,0,.37,2,3.53,3.53,0,0,0,1,1.5,2.86,2.86,0,0,0,1.91.58,6.84,6.84,0,0,0,4.46-2.15,33.92,33.92,0,0,0,4.57-5.21,69.08,69.08,0,0,0,4.12-6.44q1.91-3.37,3.2-5.89a13.52,13.52,0,0,1,.65-1.77,4.35,4.35,0,0,0,.31-2.25,1,1,0,0,1,.75-1.26,7.28,7.28,0,0,1,1.91-.37q4,.34,5.62,1.87a5.67,5.67,0,0,1,1.81,3.65,13.74,13.74,0,0,1-.44,4.7q-.65,2.52-1,4.7-.07.48-.24,1.57t-.31,2.38q-.14,1.29-.2,2.62a9.44,9.44,0,0,0,.1,2.21,1.65,1.65,0,0,0,.61,1.16q.44.27,1.33-.48a32.25,32.25,0,0,0,3.47-4.26q1.84-2.62,3.65-5.59t3.47-6q1.67-3,3-5.55.75-1.64,1.53-3.1t1.33-2.42a2.56,2.56,0,0,1,1-.2,1.33,1.33,0,0,1,1,.37,3.5,3.5,0,0,1,.65.92l-.68,1.5L154.31,394q-1.26,2.52-2.73,5.31T148.45,405q-1.67,2.86-3.34,5.45a54.2,54.2,0,0,1-3.41,4.74,24.27,24.27,0,0,1-3.3,3.44,11.48,11.48,0,0,1-3.27,1.91,10.2,10.2,0,0,1-3.75.75,4.57,4.57,0,0,1-3.82-1.74,11.44,11.44,0,0,1-2-4.16,21.48,21.48,0,0,1-.72-5,23.93,23.93,0,0,1,.2-4.29v-.17s0-.19.07-.51a64.1,64.1,0,0,1-4.05,6,38.14,38.14,0,0,1-4.7,5.14,24.33,24.33,0,0,1-5.21,3.65,12.12,12.12,0,0,1-5.59,1.4,9.68,9.68,0,0,1-4.5-1,8,8,0,0,1-2.93-2.52,10.36,10.36,0,0,1-1.57-3.68,20,20,0,0,1-.48-4.43v-1a7.24,7.24,0,0,1,.07-1,41.27,41.27,0,0,1,1.74-7.56A62.86,62.86,0,0,1,101.3,392a67.52,67.52,0,0,1,4.8-8.28,44,44,0,0,1,6-7.12,29.66,29.66,0,0,1,6.85-5,16.07,16.07,0,0,1,7.49-1.87,9.91,9.91,0,0,1,5.31,1.43,12.88,12.88,0,0,1,3.88,3.71,15.78,15.78,0,0,1,2.28,5.11,17.86,17.86,0,0,1,.51,5.69,15.56,15.56,0,0,1-.82,3.68l-.07.07ZM186.3,422q-6,0-8.48-3t-2.49-8.55q0-.61,0-1.33t.1-1.46v-.75a4.4,4.4,0,0,1,0-.55q0-.27.07-.65t.17-1.06q-1.91,3.13-4.16,6.2a42.3,42.3,0,0,1-4.8,5.52,24.41,24.41,0,0,1-5.35,4,12,12,0,0,1-5.72,1.5,10,10,0,0,1-4.5-.92,8,8,0,0,1-3-2.49,10,10,0,0,1-1.6-3.65,19.28,19.28,0,0,1-.48-4.33v-1.09a8.8,8.8,0,0,1,.07-1.09,41.25,41.25,0,0,1,1.74-7.56,62.82,62.82,0,0,1,3.41-8.41,67.44,67.44,0,0,1,4.8-8.28,44,44,0,0,1,6-7.12,29.68,29.68,0,0,1,6.85-5,16.07,16.07,0,0,1,7.5-1.87,10.3,10.3,0,0,1,3.41.55,10.75,10.75,0,0,1,2.93,1.57l.68-2.59,1.43-6.13q.68-2.93,1.23-5.38t.89-4.29a26.54,26.54,0,0,0,.41-2.86,11,11,0,0,0,0-2q-.1-.82-.24-1.43-.07-.34-.1-.65a5.26,5.26,0,0,1,0-.58,1.33,1.33,0,0,1,.85-1.26,4.73,4.73,0,0,1,1.74-.31,9.41,9.41,0,0,1,4.26.82,5.9,5.9,0,0,1,2.42,2.15,7.38,7.38,0,0,1,1,3,17.73,17.73,0,0,1,.07,3.48q-.14,1.57-.61,4.22c-.32,1.77-.73,3.78-1.23,6s-1.06,4.68-1.67,7.29-1.24,5.31-1.87,8.09q-.27,1.36-.75,3.3l-1,4.13q-.75,2.86-1.53,6.13t-1.46,6.52q-.68,3.24-1.09,6.2a38.76,38.76,0,0,0-.41,5.22v1.16a3.7,3.7,0,0,0,.14,1q.41,2.79,2.45,2.79a4.77,4.77,0,0,0,1.81-.41,10.84,10.84,0,0,0,1.94-1.06,18.19,18.19,0,0,0,1.84-1.43,20.34,20.34,0,0,0,1.57-1.53,37.73,37.73,0,0,0,3.41-4.46q1.64-2.49,3.1-5.08t2.73-5.14q1.26-2.56,2.28-4.6t1.6-3.27a12.27,12.27,0,0,1,1.06-1.91,1.5,1.5,0,0,1,.58-.27,2.43,2.43,0,0,1,.51-.07,1.25,1.25,0,0,1,.92.37,3.5,3.5,0,0,1,.65.92q-.68,1.23-1.33,2.73T209.6,394q-1.23,2.45-2.52,5.08t-2.69,5.21q-1.4,2.59-2.86,5a46.94,46.94,0,0,1-3,4.5c-.77,1-1.59,1.91-2.45,2.85a21.27,21.27,0,0,1-2.79,2.57,15.7,15.7,0,0,1-3.2,1.89,11.34,11.34,0,0,1-3.75.87Zm-8.59-27.46q.75-3.41,1.57-7.05t1.7-7.39a8.34,8.34,0,0,1,.37-1.4,8.35,8.35,0,0,0,.37-1.4,5.3,5.3,0,0,0-3.27-1,8,8,0,0,0-4.84,1.87,25.17,25.17,0,0,0-4.7,4.84,50.53,50.53,0,0,0-4.22,6.64q-2,3.68-3.51,7.32a67.45,67.45,0,0,0-2.49,6.85,25.24,25.24,0,0,0-1.09,5.18,10,10,0,0,0-.07,2,7.89,7.89,0,0,0,.37,2,3.28,3.28,0,0,0,1,1.5,2.86,2.86,0,0,0,1.91.58,5.69,5.69,0,0,0,3.13-1.09,18.42,18.42,0,0,0,3.27-2.86,34.91,34.91,0,0,0,3.17-4q1.53-2.25,2.93-4.53t2.52-4.43l1.94-3.71-.07.07Zm76.59-6.88a1.29,1.29,0,0,0,.41-.07,4,4,0,0,1,1.09-.14,2.07,2.07,0,0,1,1.36.75q-1.77,3.61-4,7.77t-4.7,8a69.17,69.17,0,0,1-5,6.88,22.66,22.66,0,0,1-4.87,4.57q-1.57,7.43-3.41,14.92T231,444.63a125.73,125.73,0,0,1-5,12.61,50.07,50.07,0,0,1-5.93,9.95,24.28,24.28,0,0,1-7,6.27,13,13,0,0,1-8.21,1.6,8.45,8.45,0,0,1-6.1-3.75,13.82,13.82,0,0,1-2.28-8.11,19.63,19.63,0,0,1,.61-4.77,54.09,54.09,0,0,1,4.6-11.62,68.09,68.09,0,0,1,6.64-10.05,94.39,94.39,0,0,1,8.14-9q4.39-4.26,9-8.28.75-3.61,1.6-7.8l1.94-9.57-.89,1.29q-2.18,3.47-4.46,6.75a52.87,52.87,0,0,1-4.67,5.83,23.89,23.89,0,0,1-4.87,4.09,9.57,9.57,0,0,1-5.08,1.53q-3.54,0-5-2.35a11.9,11.9,0,0,1-1.43-6.23q0-.68,0-1.36t.1-1.43a48.67,48.67,0,0,1,.72-4.87q.51-2.62,1.16-5.35t1.4-5.48l1.43-5.28q1.16-4.09,2.08-7.77a41.12,41.12,0,0,0,1.12-5.93,6,6,0,0,0,0-1.81q-.14-.72-.27-1.26-.07-.27-.1-.44a2.83,2.83,0,0,1,0-.51,1.42,1.42,0,0,1,.78-1.29,3.84,3.84,0,0,1,1.67-.34,9.78,9.78,0,0,1,2.76.41,10.62,10.62,0,0,1,2,.75,6.76,6.76,0,0,1,2.69,3.76,13.47,13.47,0,0,1,.51,5,28,28,0,0,1-.89,5.19c-.45,1.68-.91,3.18-1.36,4.51l-.41,1.29-1.46,4.74q-.85,2.78-1.64,5.67c-.52,1.93-1,3.83-1.43,5.67a37.86,37.86,0,0,0-.85,4.81,13.15,13.15,0,0,0,.1,2.59q.17,1.09.78,1.09a3.52,3.52,0,0,0,2.08-1.14,24.71,24.71,0,0,0,2.73-3q1.47-1.86,3-4.25t3.13-4.87q1.57-2.49,3-4.87t2.52-4.29V393l.54-.82a7.66,7.66,0,0,0,.48-.82l-.07.07q1-5.25,1.57-8.82t.61-4.74a7.65,7.65,0,0,0,0-2q-.14-.89-.27-1.64a2.31,2.31,0,0,1-.14-.72V373a1.47,1.47,0,0,1,.85-1.26,5.49,5.49,0,0,1,1.81-.37q4.5,0,6.44,1.94a7.85,7.85,0,0,1,2.28,4.74q-.27,3.48-.65,7t-.92,7.32q-.55,3.82-1.26,8.14t-1.74,9.44a21.81,21.81,0,0,0,3.85-4.09q1.94-2.59,3.82-5.59t3.58-6.23q1.7-3.24,3.13-6.1l.27-.2Zm-54,75.29a5.28,5.28,0,0,0,.78,3,2.9,2.9,0,0,0,2.62,1.19,6.36,6.36,0,0,0,3.07-1.36,16,16,0,0,0,2.86-2.93,40.59,40.59,0,0,0,3.78-6.34q1.81-3.68,3.37-7.8t2.93-8.31q1.36-4.19,2.52-7.8.41-1.23.72-2.42t.65-2.21V428l.68-2.66a78.07,78.07,0,0,0-9.16,8.52A79.3,79.3,0,0,0,207.15,444q-.75,1.23-1.91,3.54t-2.28,5a47.52,47.52,0,0,0-1.91,5.48,18.49,18.49,0,0,0-.78,4.91Z" transform="translate(-22 -317)"/><path class="cls-2" d="M412.44,402.89q-1.84,3.27-4.09,6.85a38,38,0,0,1-5.14,6.51,25.8,25.8,0,0,1-6.61,4.84,18.3,18.3,0,0,1-8.48,1.91,11.48,11.48,0,0,1-6-1.5,11.84,11.84,0,0,1-4-4,17.79,17.79,0,0,1-2.21-5.72,32.83,32.83,0,0,1-.68-6.78v-1.74a12.77,12.77,0,0,1,.14-1.81v.07a47.28,47.28,0,0,1,1.36-7.73,53.09,53.09,0,0,1,2.62-7.63,46,46,0,0,1,3.71-6.95,32.34,32.34,0,0,1,4.67-5.69,21.14,21.14,0,0,1,5.45-3.85,13.72,13.72,0,0,1,6-1.4,10.9,10.9,0,0,1,5.35,1.29,12.6,12.6,0,0,1,4,3.37,14.35,14.35,0,0,1,2.38,4.7,15.8,15.8,0,0,1,.65,5.35,14.42,14.42,0,0,1-2.73,7,26.36,26.36,0,0,1-5.59,5.66,34.6,34.6,0,0,1-7.05,4.09,39.16,39.16,0,0,1-7.26,2.38q-.27,1.16-.44,2.38t-.31,2.59a9.07,9.07,0,0,0-.07,1.12v1.12a17.18,17.18,0,0,0,.24,2.9,8.06,8.06,0,0,0,.85,2.52,5.08,5.08,0,0,0,1.7,1.84,5.77,5.77,0,0,0,2.73.85,9,9,0,0,0,4.91-1.64A22.79,22.79,0,0,0,402.8,412a39.49,39.49,0,0,0,3.68-4.91q1.67-2.62,3-4.8v.07q1.64-2.86,3-5.62t2.56-5l1.23-2.32q.68-1.29,1.23-2.25a4,4,0,0,1,1-.34,1.33,1.33,0,0,1,1,.37,3.49,3.49,0,0,1,.65.92l-.68,1.5q-1.23,2.52-3,6t-4,7.26Zm-5.25-24.53q-1-2-2.45-2a4.68,4.68,0,0,0-2.83,1.23,19,19,0,0,0-3.07,3.2,48.36,48.36,0,0,0-3,4.43q-1.5,2.45-2.69,4.91T391,394.82a25.21,25.21,0,0,0-1.26,3.65,21.68,21.68,0,0,0,5.38-1.5,29.22,29.22,0,0,0,5.89-3.2,22.79,22.79,0,0,0,4.87-4.56,10.49,10.49,0,0,0,2.32-5.66,9.39,9.39,0,0,0-1-5.18Zm43.74,24.53q-1.84,3.27-4.09,6.85a38,38,0,0,1-5.14,6.51,25.81,25.81,0,0,1-6.61,4.84,18.3,18.3,0,0,1-8.48,1.91,11.47,11.47,0,0,1-6-1.5,11.84,11.84,0,0,1-4-4,17.79,17.79,0,0,1-2.21-5.72,32.83,32.83,0,0,1-.68-6.78v-1.74a12.77,12.77,0,0,1,.14-1.81v.07a47.25,47.25,0,0,1,1.36-7.73,53.12,53.12,0,0,1,2.62-7.63,46,46,0,0,1,3.71-6.95,32.36,32.36,0,0,1,4.67-5.69,21.14,21.14,0,0,1,5.45-3.85,13.72,13.72,0,0,1,6-1.4,10.27,10.27,0,0,1,5.35,1.4,12.88,12.88,0,0,1,4,3.65,15.52,15.52,0,0,1,2.35,5.08,17.26,17.26,0,0,1,.55,5.69q-.07.61-.17,1.36a7.29,7.29,0,0,1-.34,1.43,2.58,2.58,0,0,1-.75,1.12,2.06,2.06,0,0,1-1.4.44,3.09,3.09,0,0,1-.65-.2,2.59,2.59,0,0,1-.72-.55q.27-1,.44-1.81a15.24,15.24,0,0,0,.24-1.6,19.55,19.55,0,0,0-.07-2.83,9.8,9.8,0,0,0-.55-2.49,5.17,5.17,0,0,0-1.06-1.77,2,2,0,0,0-1.53-.68,5,5,0,0,0-3,1.36,20.08,20.08,0,0,0-3.37,3.68,50.57,50.57,0,0,0-3.41,5.38,62.44,62.44,0,0,0-3.1,6.44,71.31,71.31,0,0,0-2.45,6.92A49,49,0,0,0,426.4,407q-.07.55-.1,1.19t0,1.19a16.38,16.38,0,0,0,.27,3.07,8.7,8.7,0,0,0,.89,2.56,4.44,4.44,0,0,0,4.22,2.42,9.17,9.17,0,0,0,5-1.53,21.73,21.73,0,0,0,4.43-3.82,38.66,38.66,0,0,0,3.75-4.94q1.7-2.66,3.07-4.91v.07q1.64-2.86,3-5.62t2.56-5l1.23-2.32q.68-1.29,1.23-2.25a4,4,0,0,1,1-.34,1.33,1.33,0,0,1,1,.37,3.5,3.5,0,0,1,.65.92l-.68,1.5q-1.23,2.52-3,6t-4,7.26Zm1.8-9.13,4.41-9.41a8.79,8.79,0,0,1-4-1.26,9,9,0,0,1-2.73-2.66,10.68,10.68,0,0,1-1.5-3.58,12.55,12.55,0,0,1-.24-4,16.78,16.78,0,0,1,1.26-4.5,17.93,17.93,0,0,1,2.52-4.22A13.42,13.42,0,0,1,456,361a8.58,8.58,0,0,1,4.5-1.23q3.07,0,4.33,1.77t1.06,5.31a28.08,28.08,0,0,1-.75,4q-.55,2.11-1.16,4t-1.19,3.37q-.58,1.5-.85,2.25a16,16,0,0,0,3.17.48q1.53.07,2.9.07t2.56.07a4.37,4.37,0,0,1,1.91.51,2.5,2.5,0,0,1,1.12,1.33,5.92,5.92,0,0,1,.2,2.52,20.59,20.59,0,0,1-.41,2.32l-.68,2.79q-.61,2.45-1.26,5.18t-1.23,5.42q-.58,2.69-1.06,5.14t-.68,4.29a10.5,10.5,0,0,0,.31,3.65q.44,1.47,1.19,1.6a8.63,8.63,0,0,0,2.83-2.15,34.17,34.17,0,0,0,3.27-4.05q1.67-2.38,3.44-5.21t3.37-5.66q1.6-2.83,3-5.45t2.38-4.53l.2-.48h-.07a7.26,7.26,0,0,1,.65-1.09,1.24,1.24,0,0,1,1.06-.41q.89,0,1.7,1.36l-.75,1.43L488.85,394q-1.26,2.52-2.73,5.31T483,405q-1.67,2.86-3.34,5.45a54.14,54.14,0,0,1-3.41,4.74,24.27,24.27,0,0,1-3.3,3.44,11.59,11.59,0,0,1-3.24,1.91,10.11,10.11,0,0,1-3.78.75,4.63,4.63,0,0,1-3-1,7.35,7.35,0,0,1-2-2.66,14.19,14.19,0,0,1-1.12-3.85,29.56,29.56,0,0,1-.34-4.57q0-.75,0-1.53t.1-1.53a44.91,44.91,0,0,1,.68-4.57q.55-2.86,1.29-6t1.57-6a47,47,0,0,1,1.57-4.7l-4.63-.2c-.77,1.59-1.29,3.2-2.11,4.84s-1.89,3.23-2.66,4.77l-2.57-.61Zm3.93-17.17a3.9,3.9,0,0,0,.31,2.18,2.38,2.38,0,0,0,1.81,1.16l.85-1.94q.58-1.33,1.16-3t1.06-3.37a18.27,18.27,0,0,0,.61-3.07q.07-1.43-.2-1.43-.55,0-1.43.92a14.06,14.06,0,0,0-1.77,2.35,20.83,20.83,0,0,0-1.57,3.1,11,11,0,0,0-.82,3.1Zm65,26.3q-1.84,3.27-4.09,6.85a38,38,0,0,1-5.14,6.51,25.8,25.8,0,0,1-6.61,4.84,18.3,18.3,0,0,1-8.48,1.91,11.48,11.48,0,0,1-6-1.5,11.84,11.84,0,0,1-4-4,17.79,17.79,0,0,1-2.21-5.72,32.83,32.83,0,0,1-.68-6.78v-1.74a12.78,12.78,0,0,1,.14-1.81v.07a47.29,47.29,0,0,1,1.36-7.73,53.09,53.09,0,0,1,2.62-7.63,46,46,0,0,1,3.71-6.95,32.34,32.34,0,0,1,4.67-5.69,21.14,21.14,0,0,1,5.45-3.85,13.72,13.72,0,0,1,6-1.4,10.9,10.9,0,0,1,5.35,1.29,12.6,12.6,0,0,1,4,3.37,14.35,14.35,0,0,1,2.38,4.7,15.8,15.8,0,0,1,.65,5.35,14.42,14.42,0,0,1-2.73,7,26.36,26.36,0,0,1-5.59,5.66,34.6,34.6,0,0,1-7.05,4.09,39.16,39.16,0,0,1-7.26,2.38q-.27,1.16-.44,2.38t-.31,2.59a9.07,9.07,0,0,0-.07,1.12v1.12a17.18,17.18,0,0,0,.24,2.9,8.06,8.06,0,0,0,.85,2.52,5.08,5.08,0,0,0,1.7,1.84,5.77,5.77,0,0,0,2.73.85,9,9,0,0,0,4.91-1.64A22.8,22.8,0,0,0,512,412a39.49,39.49,0,0,0,3.68-4.91q1.67-2.62,3-4.8v.07q1.64-2.86,3-5.62t2.56-5l1.23-2.32q.68-1.29,1.23-2.25a4,4,0,0,1,1-.34,1.33,1.33,0,0,1,1,.37,3.5,3.5,0,0,1,.65.92l-.68,1.5q-1.23,2.52-3,6t-4,7.26Zm-5.25-24.53q-1-2-2.45-2a4.68,4.68,0,0,0-2.83,1.23,19,19,0,0,0-3.07,3.2,48.36,48.36,0,0,0-3,4.43q-1.5,2.45-2.69,4.91t-2.11,4.67a25.21,25.21,0,0,0-1.26,3.65,21.68,21.68,0,0,0,5.38-1.5,29.22,29.22,0,0,0,5.89-3.2,22.79,22.79,0,0,0,4.87-4.56,10.49,10.49,0,0,0,2.32-5.66,9.39,9.39,0,0,0-1-5.18Zm27.46-24.26a37,37,0,0,1-.51,3.82q-.37,2-.85,4.36a47,47,0,0,1,5.76.34,20.06,20.06,0,0,1,5.11,1.29,14,14,0,0,1,4.19,2.62,12.6,12.6,0,0,1,3,4.26h-.07a1,1,0,0,1-.2,1.16,1,1,0,0,1-1.29.27,14.42,14.42,0,0,0-7-3.85,38.08,38.08,0,0,0-8.89-1h-1.7q-.68,3.07-1.46,6.13l-1.6,6.27L537.06,385l-.2.89q-.48,1.77-1.23,4.8t-1.46,6.54q-.72,3.51-1.23,7.05a45.28,45.28,0,0,0-.51,6.4,17,17,0,0,0,.31,3.44,3,3,0,0,0,1.12,2,2.2,2.2,0,0,0,2,.07,12,12,0,0,0,3.34-1.84,25.23,25.23,0,0,0,4.12-4.33,60.79,60.79,0,0,0,3.82-5.62q1.81-3,3.34-6t2.69-5.48h-.07q1-1.91,1.74-3.37a16.72,16.72,0,0,1,1.53-2.42,2,2,0,0,1,.75-.07,1.65,1.65,0,0,1,1.57,1.29l-2.45,5.11h.07Q554.09,398,551.5,403a78.69,78.69,0,0,1-5.55,9.27,35.22,35.22,0,0,1-6.3,7,10.88,10.88,0,0,1-7,2.76q-6.06,0-8.45-3t-2.38-8.38q0-.75,0-1.5t.1-1.57q.2-2.32,1-6.34t1.77-8.82q1-4.8,2.25-10.08t2.38-10.19l1-3.88q-2.32.2-4.43.34t-4.09.14a23.54,23.54,0,0,1-7.29-1,7,7,0,0,1-4.43-3.82,3.58,3.58,0,0,1-.2-.78,1.33,1.33,0,0,1,.07-.75.73.73,0,0,1,.51-.41,1.3,1.3,0,0,1,1,.31l-.07-.07a17.21,17.21,0,0,0,4.46,1.23,35.89,35.89,0,0,0,5,.34q2.45,0,5.25-.24t5.45-.51q1-4.29,1.64-7.53t.82-4.67a10.59,10.59,0,0,0,0-1.94q-.1-.78-.24-1.46-.07-.34-.1-.65a5.26,5.26,0,0,1,0-.58,1.47,1.47,0,0,1,.85-1.26,4.21,4.21,0,0,1,1.67-.31,9.41,9.41,0,0,1,4.26.82,6.15,6.15,0,0,1,2.45,2.15,7.1,7.1,0,0,1,1.06,3,17.71,17.71,0,0,1,.07,3.47ZM555.11,360a8.07,8.07,0,0,1,2.9-1.64,10.8,10.8,0,0,1,3.37-.55,9.23,9.23,0,0,1,2.25.27,5.27,5.27,0,0,1,1.91.89,4.61,4.61,0,0,1,1.33,1.6,5.06,5.06,0,0,1,.51,2.35,14.88,14.88,0,0,1-1,4.84q-1,2.73-2.25,5.79-.61,1.57-1.26,3.13t-1.19,3.2q2.66,4,5,8T571,395.6a56.88,56.88,0,0,1,2.93,7,20.16,20.16,0,0,1,1.16,5.66q1.57-2.32,3.07-4.84t2.9-5q1.4-2.49,2.56-4.74t2-4s0-.11.14-.2a.2.2,0,0,0,.07-.14l.55-1.09h-.07a7.26,7.26,0,0,1,.65-1.09,1.24,1.24,0,0,1,1.06-.41,1.85,1.85,0,0,1,1.77,1.36l-.41.82-.2.2q-1,2-2.35,4.63t-2.9,5.59q-1.57,2.93-3.34,5.93t-3.61,5.72a53,53,0,0,1-3.75,4.94,25.5,25.5,0,0,1-3.68,3.58,20.79,20.79,0,0,1-3.65,2,33,33,0,0,1-4.12,1.5,34.89,34.89,0,0,1-4.26,1,25.92,25.92,0,0,1-4.05.34,21.16,21.16,0,0,1-4.19-.4,10.53,10.53,0,0,1-3.34-1.25,6,6,0,0,1-2.15-2.11,5.14,5.14,0,0,1-.61-3.05,3.87,3.87,0,0,1,1-1.94,2.52,2.52,0,0,1,1.94-1,.85.85,0,0,1,1,.75,6,6,0,0,1,.07,1.57,2.88,2.88,0,0,0,.51,1.77,3.1,3.1,0,0,0,1.36,1,6.86,6.86,0,0,0,1.87.44,12.3,12.3,0,0,0,2,0q5.45-.2,7.9-3.48t2.66-8.94a19.23,19.23,0,0,0-.51-4.13,49.58,49.58,0,0,0-3.24-9.57,32.39,32.39,0,0,0-2.38-4.37l-3,6.76-2.45-.89,3.61-8.53a26.37,26.37,0,0,1-3.88-7.17,24,24,0,0,1-1.5-8.32,18.27,18.27,0,0,1,1.12-6.34,12.17,12.17,0,0,1,3.92-5.33Zm5.18,15.6q.61-1.5,1.33-3.3t1.26-3.44a26,26,0,0,0,.82-3,3.15,3.15,0,0,0,0-1.87h.07q-.41-.82-.89-.89t-1.33.78a9,9,0,0,0-1.33,2.32,19.54,19.54,0,0,0-1,3.3,16.92,16.92,0,0,0-.41,3.68,9.79,9.79,0,0,0,.82,4l.68-1.64Z" transform="translate(-22 -317)"/></svg>