<svg id="Слой_1" data-name="Слой 1" xmlns="http://www.w3.org/2000/svg" viewBox="0 0 541.28 142.27"><defs><style>.cls-1{fill:#f0918b;}</style></defs><title>logo_F</title><path class="cls-1" d="M255.34,100.45a6.29,6.29,0,0,0,.76.25l.39.08h.17a3.06,3.06,0,0,0,1,.08c2.54-.12,6.8-2.39,8.64-3.44l.89-.52h0a15.6,15.6,0,0,1,1.52-.64h0a21.74,21.74,0,0,1,13.75-.93h0a18.56,18.56,0,0,1,3.42,1.14,20.94,20.94,0,0,1,11.47,11.8c-1.16-9.89-9.09-17.27-13.82-20.85a24.8,24.8,0,0,0-2.07-1.48h0l-.09-.06C280.54,85.32,280,85,280,85c-3.09-1.93-8.33-5-17.91-10.53-12.85-7.46-14.52-18.24-14-25.2a20.85,20.85,0,0,1,1.36-6.86l-.06.09h0A26.49,26.49,0,0,0,247.15,65h0c.06.17.12.35.18.55a8.1,8.1,0,0,1,.5,3.24,15.57,15.57,0,0,1-2.56,8.67l-.06.09c-.11.2-.22.39-.34.58a6.16,6.16,0,0,0-.69,1.6c-.27,1.66,1.38,2.15,2.25,2.29h.39l.26,0h.06a2.27,2.27,0,0,1,1.48,1v.06h0a2.5,2.5,0,0,1,.22,1,1.61,1.61,0,0,1-.32,1l-.11.13-.16.14a1.63,1.63,0,0,1-.26.17h-.12l-.33.11a2.26,2.26,0,0,0,1.88,2.59h0a5.31,5.31,0,0,0,1.18.14,1.8,1.8,0,0,0-1.28,2.2v.05a2.58,2.58,0,0,0,.19.48,1.87,1.87,0,0,0,1.72,1c1.27,0,1.54-.41,1.55,1.55h0a14.38,14.38,0,0,0,.26,3.77,4,4,0,0,0,2.24,2.64Z" transform="translate(-4.81 -7)"/><path class="cls-1" d="M261.37,68.91a73.68,73.68,0,0,0,9.5,6.47L272,76c1.17.63,2.4,1.25,3.69,1.87l.42.21,1,.52c1.44.72,2.78,1.46,4.06,2.21h0s.48.25,1.28.73,2.2,1.36,3.71,2.46c.46.34,1,.7,1.45,1.09a42.3,42.3,0,0,1,9.12,9.6,27.34,27.34,0,0,1,3.53,7.38h0a34.69,34.69,0,0,1,1.63,6.48,36.16,36.16,0,0,1,.39,6.83,29,29,0,0,1-.9,6.47h0a47,47,0,0,0,4.88-10l.1-.23a30.54,30.54,0,0,0,0-22.77c-.47-1.25-1-2.36-1.44-3.31a27.64,27.64,0,0,0-2.15-3.7h0c-4.71-7-12.08-11.88-19.52-15.81l-.84-.45c-2-1-4-2-5.88-2.92l-.48-.23c-2-1-3.88-1.86-5.69-2.76A47.57,47.57,0,0,1,261,54.07c-9.09-7.73-4.1-18.42-1.65-22.51.35-.56.7-1.11,1.1-1.69h0a24.69,24.69,0,0,0-7.68,7.75,19.83,19.83,0,0,0-1.2,2.28l-.2.46-.12.32a20.83,20.83,0,0,0-1.17,7.94c.23,5.49,2.57,12.91,11.21,20.26Z" transform="translate(-4.81 -7)"/><path class="cls-1" d="M333.77,97.87h0c-.09-.86-.22-1.71-.36-2.54-2-12-9.38-21.68-17.82-29.07a91.28,91.28,0,0,0-10.8-8.07,112.66,112.66,0,0,0-14.57-7.89h0c-1.68-.71-3.37-1.57-5-2.42-5.76-3.06-11.43-6.37-13.81-12.66a20.56,20.56,0,0,1-.32-11c1.14-4.24,4.78-12.93,15.71-15a21.08,21.08,0,0,1,4.7-.36,15.82,15.82,0,0,1,8.27,2.56c6.84,4.56,8.18,13.65,1.67,19h0c-4,4.18-13.8,3.77-15.54-3.57a8.9,8.9,0,0,1-.06-3.55,3.28,3.28,0,0,1,.11-.53,4.45,4.45,0,0,1,.11-.52,6.65,6.65,0,0,1,1.24-2.18,9.82,9.82,0,0,1,1.61-1.5,6.86,6.86,0,0,1,1.5-.87A8,8,0,0,0,283.25,24c-.77,6,3.28,10.9,9,12.44a17.73,17.73,0,0,0,9.8-.15A13.06,13.06,0,0,0,310.7,26c.72-8.5-5.08-19.08-22.75-19-13,.07-19.6,7.29-22.85,13.19-7.73,16.22,4.87,30.66,19,37.27h0c7.35,3.6,16.24,10.45,21.78,16.22,1.52,1.64,15.7,17.71,11.65,41.4-3.12,12.81-11.53,29.68-34.2,30a25.51,25.51,0,0,1-12.2-4.08c-8.52-5.68-11.83-16-8.21-24l.07-.15a20.12,20.12,0,0,1,5.42-6.9v0a15.6,15.6,0,0,1,7.7-3.74c7.07-1.44,13.88,0,16.91,7.29a15.21,15.21,0,0,1,.75,2.28,14.76,14.76,0,0,1,.09,5.79c-.89,3.62-2,5.49-5,7.71a11.24,11.24,0,0,1-2.45,1.41c9-.82,11.29-8.69,11.67-10.34a16.87,16.87,0,0,0-.58-7.13,19.08,19.08,0,0,0-.94-2.47c-2.63-5.74-7.06-9-13.09-10.69a28.71,28.71,0,0,0-5.64-.94c-.58,0-1.13-.06-1.71-.07-11.13-.08-21.17,6.47-22.81,18.24-1.17,13.86,8.29,31.12,37.1,31,18.41-.1,29-9,34.9-17.67l.06-.08c8.78-11.85,8.78-26.75,8.37-32.59Z" transform="translate(-4.81 -7)"/><path class="cls-1" d="M60.25,88.89a24.28,24.28,0,0,0-5.92,4.41,18.79,18.79,0,0,0-4.09,6.37.75.75,0,0,1-1.09.07,1.66,1.66,0,0,1-.8-1,23.58,23.58,0,0,1,4.3-11.05A20.39,20.39,0,0,1,60.81,81q.14-1.75.17-3.57t.1-3.71c0-.19,0-.43,0-.73s0-.55,0-.74a4.18,4.18,0,0,0,.07-.8v-.81q0-.91.08-1.78t.08-1.79q.23-5,.69-11.4-1.12.56-2.67,1.16a29.52,29.52,0,0,1-3.34,1q-1.79.46-3.69.77a22.7,22.7,0,0,1-3.72.31A9.71,9.71,0,0,1,44,57.87a4.82,4.82,0,0,1-2.53-3.46A9.68,9.68,0,0,1,41.21,52a11,11,0,0,1,1.29-5.14,17.32,17.32,0,0,1,3.36-4.48,19.68,19.68,0,0,1,4.62-3.32,15.68,15.68,0,0,1,5.15-1.68c.19,0,.41,0,.67,0a6.74,6.74,0,0,0,.73-.1q.56-.07,1.16-.1t1.15,0A19.26,19.26,0,0,1,66,38.28,16.13,16.13,0,0,1,71.73,42q7.07-2,14.84-3.78t15.75-3.36q5.74-1.19,11.76-2.52T126,29.53q5.88-1.43,11.52-3t10.6-3.36H148l1.79-.67q1.22-.45,2.52-1a16.38,16.38,0,0,0,2.38-1.26,3.19,3.19,0,0,0,1.37-1.47q.07-.35.14-.63a2.09,2.09,0,0,0,.07-.49,2.6,2.6,0,0,1,.07-.63c0-.19.21-.33.49-.42h-.07a1.25,1.25,0,0,1,.91.07,1.55,1.55,0,0,1,.77.77,2.78,2.78,0,0,1,0,2.73A11.38,11.38,0,0,1,156.36,23a19.67,19.67,0,0,1-2.83,2.42q-1.51,1.05-2.27,1.54a85.88,85.88,0,0,1-13.44,6.51q-7.56,2.94-15.58,5.39t-15.85,4.37Q98.54,45.1,92,46.64l-3.5.84q-3.78.84-7,1.61a47.41,47.41,0,0,0-5.42,1.61c0,.28,0,.56,0,.84s0,.64.07,1.08,0,1,.07,1.64,0,1.47,0,2.45v3.11q0,1.78-.07,4.2t-.17,5.6q-.1,3.18-.38,7.31h.42a1.55,1.55,0,0,0,.49-.07h.28a.28.28,0,0,0,.21-.07h-.07q3.29-.63,6.58-1.33A58.57,58.57,0,0,0,90,73.75a37.5,37.5,0,0,0,5.64-2.38A16.38,16.38,0,0,0,100,68q.35-.49.63-.49a.59.59,0,0,1,.49.31,2.9,2.9,0,0,1,.35.8,8.53,8.53,0,0,1,.21.91,10.39,10.39,0,0,1-2.59,5.6,18,18,0,0,1-5.18,3.88A37.54,37.54,0,0,1,87,81.72q-3.85,1.08-7.84,1.92l-2,.35c-.28.09-.56.18-.84.25a8.26,8.26,0,0,1-1.19.18V86a.49.49,0,0,1,0,.21.31.31,0,0,0,0,.14v.28h.07q-.7,7.21-2,15a100.86,100.86,0,0,1-3.85,15.32,75.32,75.32,0,0,1-6.48,14.2,44.14,44.14,0,0,1-9.83,11.61,31.85,31.85,0,0,1-4.41,2.66,36.07,36.07,0,0,1-5,2,40.46,40.46,0,0,1-5.32,1.33,30.24,30.24,0,0,1-5.32.49h-3a27.86,27.86,0,0,1-10.54-3.64,27.53,27.53,0,0,1-7.88-7.07,31.74,31.74,0,0,1-4.94-9.8A39.49,39.49,0,0,1,4.81,117a38.5,38.5,0,0,1,1.29-9.87A37.31,37.31,0,0,1,9.82,98a31,31,0,0,1,5.92-7.42,23.48,23.48,0,0,1,7.91-4.83,13.66,13.66,0,0,1,2.76-.67A20.74,20.74,0,0,1,29,84.94a10.45,10.45,0,0,1,5.53,1.36A10.78,10.78,0,0,1,38.2,90a16.84,16.84,0,0,1,2,5.36,31.56,31.56,0,0,1,.63,6.41q0,2.45-.14,4.34t-.28,3.29v-.07a4.21,4.21,0,0,1-.87,1.33,2.08,2.08,0,0,1-.87.53,1.45,1.45,0,0,1-.77,0,2.1,2.1,0,0,1-.56-.25,2.12,2.12,0,0,1,0-.67,6.11,6.11,0,0,0,0-.67V105.1a2.5,2.5,0,0,1,0-.42,3,3,0,0,0,0-.49q0-2.1-.18-4.2a14.07,14.07,0,0,0-.8-3.78,7.18,7.18,0,0,0-1.79-2.76,4.62,4.62,0,0,0-3.12-1.16,6.24,6.24,0,0,0-3.46.77,13.69,13.69,0,0,0-3.4,2.66,25.36,25.36,0,0,0-3.19,4.17,42.66,42.66,0,0,0-2.76,5.25,51.31,51.31,0,0,0-2.21,6,45.61,45.61,0,0,0-1.44,6.26q-.28,1.82-.35,3t-.07,1.89a32.23,32.23,0,0,0,1.12,8.61A25.54,25.54,0,0,0,18.92,138a17.1,17.1,0,0,0,4.73,4.93,10.92,10.92,0,0,0,6,1.93,18.16,18.16,0,0,0,7.94-2.34,26.57,26.57,0,0,0,6.58-5.39,39.18,39.18,0,0,0,5.29-7.62,74.47,74.47,0,0,0,4.09-9.06,92.31,92.31,0,0,0,3-9.72q1.26-5,2.1-9.58Q59.83,95,60.39,89Zm.56-42.95a4.82,4.82,0,0,0-1.37-3.46,4.15,4.15,0,0,0-2.83-1.08,7.48,7.48,0,0,0-2.8.59A10.9,10.9,0,0,0,51,43.67a11.52,11.52,0,0,0-2.31,2.55,8,8,0,0,0-1.26,3.15q0,.42.67.45a7.75,7.75,0,0,0,1.68-.14A21.37,21.37,0,0,0,52,49.17l2.48-.7,1.19-.35q2.1-.63,3.64-1.19T60.81,46Z" transform="translate(-4.81 -7)"/><path class="cls-1" d="M125.91,35.1a4.08,4.08,0,0,1,2.91,1.08,8.14,8.14,0,0,1,1.85,2.66,11.62,11.62,0,0,1,.91,3.43,21,21,0,0,1,.14,3.32A30.91,30.91,0,0,1,129.31,55a56.94,56.94,0,0,1-4.94,9.14,75.52,75.52,0,0,1-6.51,8.47,93.26,93.26,0,0,1-7.21,7.32q-.77,2.8-1.23,5t-.94,5q-.49,2.8-.77,5.53a11.21,11.21,0,0,0-.14,1.71V98.8a15.51,15.51,0,0,0,.91,5.67,3.25,3.25,0,0,0,3.22,2.31,8.4,8.4,0,0,0,5.67-2.59,36.41,36.41,0,0,0,5.35-6.37,79.07,79.07,0,0,0,4.73-8q2.17-4.2,3.78-7.49.84-1.89,1.54-3.29a14.18,14.18,0,0,1,1.12-2,1.54,1.54,0,0,1,.6-.28,2.56,2.56,0,0,1,.52-.07,1.38,1.38,0,0,1,1,.39,3.63,3.63,0,0,1,.67.94l-2.38,4.83h.07q-1.47,3.15-3.15,6.58t-3.54,6.72q-1.86,3.29-3.92,6.3a40.42,40.42,0,0,1-4.27,5.29,19.74,19.74,0,0,1-4.62,3.61,10.24,10.24,0,0,1-5,1.33,10,10,0,0,1-5.64-1.47,10.77,10.77,0,0,1-3.5-3.81,17,17,0,0,1-1.82-5.29,33.77,33.77,0,0,1-.52-6V94.28a12.21,12.21,0,0,1,.14-1.86v.07q.21-2.52.84-6.3T101,77.9q1-4.52,2.38-9.42t3.15-9.66a96.82,96.82,0,0,1,3.85-9.06,48,48,0,0,1,4.52-7.56A22.67,22.67,0,0,1,120.07,37,10.06,10.06,0,0,1,125.91,35.1Zm1,5.53q-1.12,0-2.87,2.55a48,48,0,0,0-3.78,7q-2,4.45-4.13,10.54t-3.92,13.23a43.51,43.51,0,0,0,4-4.2A71.71,71.71,0,0,0,121.36,63,60.05,60.05,0,0,0,126,54.87a24.53,24.53,0,0,0,2.38-8.29q.07-.91.07-1.92a10.28,10.28,0,0,0-.17-1.93,4.76,4.76,0,0,0-.52-1.5A1,1,0,0,0,126.89,40.63Z" transform="translate(-4.81 -7)"/><path class="cls-1" d="M137,66.18a10.8,10.8,0,0,0,.21-2,5.52,5.52,0,0,1,.14-1.33,1.44,1.44,0,0,1,1.12-1.08,3.79,3.79,0,0,1,1.82.1,12.3,12.3,0,0,1,4.27,2.31,4.33,4.33,0,0,1,1.33,3.29,10.85,10.85,0,0,1-.25,2.17q-.25,1.19-.67,2.59-.7,2.24-1.57,5.43t-1.71,6.72q-.84,3.54-1.51,7t-1,6.44q-.07.7-.1,1.5c0,.54,0,1,0,1.37a13.1,13.1,0,0,0,.49,4q.49,1.51,1.68,1.58a3.65,3.65,0,0,0,2.27-1.19,23.19,23.19,0,0,0,2.77-3.15q1.47-2,3-4.45t3.08-5.18q1.54-2.69,2.94-5.32t2.52-4.79q.91-1.68,1.58-3a22,22,0,0,1,1.23-2.14,2.69,2.69,0,0,1,1-.35q.91,0,1.75,1.4l-.77,1.47q-1.4,2.8-3.15,6.34t-3.81,7.14q-2.07,3.61-4.31,7a62.59,62.59,0,0,1-4.48,6.09,25.2,25.2,0,0,1-4.48,4.27,7.4,7.4,0,0,1-4.27,1.61,7.87,7.87,0,0,1-4.09-1,7.53,7.53,0,0,1-2.66-2.7,12.07,12.07,0,0,1-1.44-4,27.21,27.21,0,0,1-.42-4.93q0-.84,0-1.71t.1-1.71A73.09,73.09,0,0,1,132,82.59q1.82-6.62,4-13.27l1-3.22Zm12.67-18a11.94,11.94,0,0,1,1.08,2.55,6.42,6.42,0,0,1,.24,2.14,4.8,4.8,0,0,1-2,3.67,6.43,6.43,0,0,1-3.78,1.29,3.89,3.89,0,0,1-2.94-1.36,5.77,5.77,0,0,1-1.12-4.31,8.11,8.11,0,0,1,.49-2.27,9,9,0,0,1,1.05-2.06,5.31,5.31,0,0,1,1.5-1.47,3.38,3.38,0,0,1,1.85-.56,3.63,3.63,0,0,1,1.85.56A5.79,5.79,0,0,1,149.64,48.19Z" transform="translate(-4.81 -7)"/><path class="cls-1" d="M156.85,83.82l4.83-9.59a9,9,0,0,1-4.09-1.29,9.2,9.2,0,0,1-2.8-2.73,11,11,0,0,1-1.54-3.67A12.91,12.91,0,0,1,153,62.4a17.28,17.28,0,0,1,1.29-4.62,18.46,18.46,0,0,1,2.59-4.34,13.8,13.8,0,0,1,3.67-3.22A8.82,8.82,0,0,1,165.18,49q3.15,0,4.45,1.82t1.08,5.46a28.91,28.91,0,0,1-.77,4.13q-.56,2.17-1.19,4.1t-1.23,3.46q-.6,1.54-.87,2.31a16.39,16.39,0,0,0,3.25.49q1.57.07,3,.07t2.63.07a4.51,4.51,0,0,1,2,.52,2.59,2.59,0,0,1,1.15,1.37,6.09,6.09,0,0,1,.21,2.59,21.4,21.4,0,0,1-.42,2.38l-.7,2.87q-.63,2.52-1.3,5.32t-1.26,5.57q-.6,2.77-1.08,5.28t-.7,4.41a10.76,10.76,0,0,0,.31,3.75q.45,1.51,1.23,1.65a8.86,8.86,0,0,0,2.91-2.21,35.26,35.26,0,0,0,3.36-4.17q1.71-2.45,3.54-5.36T188.17,89q1.64-2.9,3-5.6t2.45-4.65l.21-.49h-.07a7.49,7.49,0,0,1,.67-1.12,1.27,1.27,0,0,1,1.08-.42q.91,0,1.75,1.4l-.77,1.47-2.27,4.55q-1.3,2.59-2.8,5.46t-3.22,5.81q-1.72,2.94-3.43,5.6a55.79,55.79,0,0,1-3.5,4.87,25,25,0,0,1-3.4,3.54,11.93,11.93,0,0,1-3.33,2,10.38,10.38,0,0,1-3.88.77,4.75,4.75,0,0,1-3.08-1,7.52,7.52,0,0,1-2.06-2.73,14.53,14.53,0,0,1-1.16-4,30.28,30.28,0,0,1-.35-4.69q0-.77,0-1.58t.1-1.58a45.94,45.94,0,0,1,.7-4.69q.56-2.94,1.33-6.12t1.61-6.13a48.09,48.09,0,0,1,1.61-4.83l-4.76-.21q-1.19,2.45-2.45,5l-2.45,4.9Zm4.34-17.57a4,4,0,0,0,.31,2.24,2.44,2.44,0,0,0,1.85,1.19l.88-2q.59-1.36,1.19-3.08t1.08-3.46a18.81,18.81,0,0,0,.63-3.15q.07-1.47-.21-1.47-.56,0-1.47.95a14.36,14.36,0,0,0-1.82,2.42A21.31,21.31,0,0,0,162,63.06,11.33,11.33,0,0,0,161.19,66.25Z" transform="translate(-4.81 -7)"/><path class="cls-1" d="M211.59,43.15a38.44,38.44,0,0,1-.52,3.92q-.39,2.1-.87,4.48a48.27,48.27,0,0,1,5.92.35,20.67,20.67,0,0,1,5.25,1.33,14.44,14.44,0,0,1,4.3,2.7,13,13,0,0,1,3.08,4.38h-.07a1.07,1.07,0,0,1-.21,1.19,1,1,0,0,1-1.33.28,14.81,14.81,0,0,0-7.17-4,39.16,39.16,0,0,0-9.14-1h-1.75q-.7,3.15-1.5,6.3l-1.65,6.44-1.33,5.32-.21.91q-.49,1.82-1.26,4.94t-1.5,6.72q-.73,3.61-1.26,7.25a46.48,46.48,0,0,0-.52,6.58,17.43,17.43,0,0,0,.31,3.54,3.11,3.11,0,0,0,1.15,2.06,2.25,2.25,0,0,0,2,.07,12.35,12.35,0,0,0,3.43-1.89,25.93,25.93,0,0,0,4.23-4.45,62.48,62.48,0,0,0,3.92-5.78q1.85-3.08,3.43-6.19T221.11,83H221q1-2,1.78-3.46A17.06,17.06,0,0,1,224.4,77a2,2,0,0,1,.77-.07,1.7,1.7,0,0,1,1.61,1.33l-2.52,5.25h.07q-2.24,4.69-4.9,9.87a80.78,80.78,0,0,1-5.71,9.52,36.16,36.16,0,0,1-6.47,7.17,11.17,11.17,0,0,1-7.21,2.84q-6.23,0-8.68-3.08t-2.45-8.61q0-.77,0-1.54t.1-1.61q.21-2.38,1-6.51t1.82-9.06q1.05-4.94,2.31-10.36t2.45-10.46l1-4q-2.38.21-4.55.35t-4.2.14a24.21,24.21,0,0,1-7.49-1,7.23,7.23,0,0,1-4.55-3.92,3.7,3.7,0,0,1-.21-.8,1.38,1.38,0,0,1,.07-.77.75.75,0,0,1,.53-.42,1.33,1.33,0,0,1,1,.31l-.07-.07a17.64,17.64,0,0,0,4.58,1.26,36.79,36.79,0,0,0,5.15.35q2.52,0,5.39-.25t5.6-.52q1-4.41,1.68-7.74t.84-4.79a10.92,10.92,0,0,0,0-2q-.11-.8-.25-1.51c0-.23-.08-.46-.1-.67a5.25,5.25,0,0,1,0-.59,1.51,1.51,0,0,1,.88-1.29,4.33,4.33,0,0,1,1.72-.31,9.67,9.67,0,0,1,4.38.84,6.33,6.33,0,0,1,2.52,2.21,7.31,7.31,0,0,1,1.08,3.11A18.26,18.26,0,0,1,211.59,43.15Z" transform="translate(-4.81 -7)"/><path class="cls-1" d="M393.67,28.24a31.27,31.27,0,0,1,7.91,9.06,41.28,41.28,0,0,1,4.34,11.1,61.79,61.79,0,0,1,1.58,12.53,124.9,124.9,0,0,1-.39,13.44q-.14,1.47-.25,2.91t-.31,2.84Q406,85,405.22,90.36t-1.61,10.25l-.56,3.29q-.49,2.38-.91,5t-.77,4.9q-.77,4.69-1.82,9.59t-2.24,9.1a72.33,72.33,0,0,0,7.49-8.19q3.71-4.69,7.21-9.87t6.72-10.57q3.22-5.39,6-10.43t5-9.34q2.24-4.31,3.78-7.32Q436.23,71.22,439,65t5-12.35q2.24-6.12,3.82-11.83a59.63,59.63,0,0,0,2-10.25,32.84,32.84,0,0,0,.11-4.52,21.73,21.73,0,0,0-.46-3.67,7.46,7.46,0,0,1-.38-1.23,14.73,14.73,0,0,1-.28-1.54,8.87,8.87,0,0,1-.07-1.58,3.11,3.11,0,0,1,.39-1.4,1.49,1.49,0,0,1,1.54-.49,5.07,5.07,0,0,1,1.86.91,12.51,12.51,0,0,1,1.75,1.58A10.78,10.78,0,0,1,455.34,20a43.79,43.79,0,0,1,1.82,18,67,67,0,0,1-1.82,10.5q-1.4,5.6-3.46,11.58T447.08,72.3q-2.73,6.19-5.84,12.29t-6.51,11.9q-3.4,5.81-6.9,11-2.94,4.13-6.26,8.33t-6.72,8q-3.4,3.81-6.79,7.17t-6.41,5.81q-2.17,1.68-4.48,3.19a47.91,47.91,0,0,1-4.69,2.7,28,28,0,0,1-4.83,1.89,17.56,17.56,0,0,1-4.83.7q-1,0-2,0a7.93,7.93,0,0,1-1.54-.17,4.79,4.79,0,0,1-2-.67,1.08,1.08,0,0,1-.56-1.37,2.28,2.28,0,0,1,.31-.67l.46-.74v.07A11.47,11.47,0,0,0,379,140a8.21,8.21,0,0,0,1-2.24q.7-2,1.65-5.6t2-8.26q1.05-4.69,2.13-10.22t2.07-11.44q1-5.92,1.79-12t1.29-11.86q.49-5.74.63-10.57t0-8.19a64.69,64.69,0,0,0-2-11.09,37.12,37.12,0,0,0-4.24-10,25.75,25.75,0,0,0-6.89-7.46,20.45,20.45,0,0,0-9.94-3.6,20,20,0,0,0-8.4,3.15,34.38,34.38,0,0,0-7.67,6.69,38.82,38.82,0,0,0-5.81,9.1,30.81,30.81,0,0,0-2.17,20.13,29.8,29.8,0,0,0,3.15,8.26,17.73,17.73,0,0,0,4.86,5.6,8.26,8.26,0,0,0,5.74,1.75,10.28,10.28,0,0,0,5.88-2.1A24.48,24.48,0,0,0,369.24,75a36.43,36.43,0,0,0,4-6.54A38.1,38.1,0,0,0,375.61,62a5.62,5.62,0,0,0,0-.59,1.63,1.63,0,0,1,0-.6,7.16,7.16,0,0,1,.52-2q.39-.87,1.93-1a1.13,1.13,0,0,1,1.37.67,3.71,3.71,0,0,1,.17,1.85,9.19,9.19,0,0,1-.21,1.4q-.14.56-.28,1v-.07A1.94,1.94,0,0,0,379,63v.14l.07-.07-.14.28-.07.07a.48.48,0,0,1,0,.21.49.49,0,0,0,0,.21h.07A42.32,42.32,0,0,1,374.95,73a38.78,38.78,0,0,1-6.05,8.08A29.71,29.71,0,0,1,361,86.86a20.34,20.34,0,0,1-9.28,2.21c-.79,0-1.54,0-2.24-.07a9.24,9.24,0,0,1-1.82-.28,20.45,20.45,0,0,1-7.84-3.54,21.27,21.27,0,0,1-5.39-5.92,23.74,23.74,0,0,1-3-7.63,29.39,29.39,0,0,1-.46-8.75q.07-.77.35-2.27a28.52,28.52,0,0,1,.77-3.12,42.38,42.38,0,0,1,5.07-12,49.4,49.4,0,0,1,8.54-10.43,51.32,51.32,0,0,1,11.13-7.87,41.07,41.07,0,0,1,12.85-4.27q1.68-.21,3.19-.35t2.21-.14A35,35,0,0,1,385.59,24a24.33,24.33,0,0,1,8.57,4.62Z" transform="translate(-4.81 -7)"/><path class="cls-1" d="M454.29,66.18a10.84,10.84,0,0,0,.21-2,5.52,5.52,0,0,1,.14-1.33,1.44,1.44,0,0,1,1.12-1.08,3.79,3.79,0,0,1,1.82.1,12.29,12.29,0,0,1,4.27,2.31,4.32,4.32,0,0,1,1.33,3.29,10.92,10.92,0,0,1-.24,2.17q-.25,1.19-.67,2.59-.7,2.24-1.57,5.43T459,84.41q-.84,3.54-1.51,7t-1,6.44c0,.47-.08,1-.11,1.5s0,1,0,1.37a13.08,13.08,0,0,0,.49,4q.49,1.51,1.68,1.58a3.66,3.66,0,0,0,2.28-1.19,23.16,23.16,0,0,0,2.76-3.15q1.47-2,3-4.45t3.08-5.18q1.54-2.69,2.94-5.32t2.52-4.79q.91-1.68,1.58-3a21.68,21.68,0,0,1,1.23-2.14,2.68,2.68,0,0,1,1-.35q.91,0,1.75,1.4l-.77,1.47q-1.4,2.8-3.15,6.34t-3.81,7.14q-2.07,3.61-4.3,7a62.59,62.59,0,0,1-4.48,6.09,25.17,25.17,0,0,1-4.48,4.27,7.39,7.39,0,0,1-4.27,1.61,7.87,7.87,0,0,1-4.09-1,7.54,7.54,0,0,1-2.66-2.7,12.06,12.06,0,0,1-1.43-4,27.16,27.16,0,0,1-.42-4.93q0-.84,0-1.71t.1-1.71a73,73,0,0,1,2.38-13.48q1.82-6.62,4-13.27l1-3.22Zm12.67-18A11.93,11.93,0,0,1,468,50.74a6.4,6.4,0,0,1,.25,2.14,4.8,4.8,0,0,1-2,3.67,6.43,6.43,0,0,1-3.78,1.29,3.89,3.89,0,0,1-2.94-1.36,5.78,5.78,0,0,1-1.12-4.31,8.16,8.16,0,0,1,.49-2.27A9,9,0,0,1,460,47.84a5.31,5.31,0,0,1,1.5-1.47,3.39,3.39,0,0,1,1.86-.56,3.64,3.64,0,0,1,1.86.56A5.8,5.8,0,0,1,467,48.19Z" transform="translate(-4.81 -7)"/><path class="cls-1" d="M474.17,83.82,479,74.23a9,9,0,0,1-4.09-1.29,9.21,9.21,0,0,1-2.8-2.73,11,11,0,0,1-1.54-3.67,12.92,12.92,0,0,1-.25-4.13,17.24,17.24,0,0,1,1.29-4.62,18.46,18.46,0,0,1,2.59-4.34,13.79,13.79,0,0,1,3.67-3.22A8.82,8.82,0,0,1,482.5,49q3.15,0,4.45,1.82T488,56.24a29,29,0,0,1-.77,4.13q-.56,2.17-1.19,4.1t-1.23,3.46q-.59,1.54-.87,2.31a16.4,16.4,0,0,0,3.26.49q1.57.07,3,.07t2.63.07a4.51,4.51,0,0,1,2,.52,2.59,2.59,0,0,1,1.16,1.37,6.09,6.09,0,0,1,.21,2.59,21.28,21.28,0,0,1-.42,2.38L495,80.6q-.63,2.52-1.29,5.32t-1.26,5.57q-.6,2.77-1.09,5.28t-.7,4.41a10.76,10.76,0,0,0,.31,3.75q.45,1.51,1.22,1.65a8.86,8.86,0,0,0,2.91-2.21,35.31,35.31,0,0,0,3.36-4.17q1.71-2.45,3.54-5.36T505.49,89q1.64-2.9,3-5.6T511,78.78l.21-.49h-.07a7.49,7.49,0,0,1,.67-1.12,1.27,1.27,0,0,1,1.08-.42q.91,0,1.75,1.4l-.77,1.47-2.28,4.55q-1.29,2.59-2.8,5.46t-3.22,5.81q-1.72,2.94-3.43,5.6a56,56,0,0,1-3.5,4.87,25,25,0,0,1-3.4,3.54,11.93,11.93,0,0,1-3.33,2,10.38,10.38,0,0,1-3.88.77,4.75,4.75,0,0,1-3.08-1,7.52,7.52,0,0,1-2.06-2.73,14.55,14.55,0,0,1-1.16-4,30.34,30.34,0,0,1-.35-4.69q0-.77,0-1.58t.11-1.58a46,46,0,0,1,.7-4.69q.56-2.94,1.33-6.12t1.61-6.13a47.82,47.82,0,0,1,1.61-4.83L482,74.65q-1.19,2.45-2.45,5l-2.45,4.9Zm4.34-17.57a4,4,0,0,0,.31,2.24,2.44,2.44,0,0,0,1.86,1.19l.88-2q.59-1.36,1.19-3.08t1.08-3.46a18.81,18.81,0,0,0,.63-3.15q.07-1.47-.21-1.47-.56,0-1.47.95A14.33,14.33,0,0,0,481,59.88a21.17,21.17,0,0,0-1.61,3.19A11.29,11.29,0,0,0,478.51,66.25Z" transform="translate(-4.81 -7)"/><path class="cls-1" d="M528.91,43.15a38.32,38.32,0,0,1-.53,3.92q-.39,2.1-.87,4.48a48.29,48.29,0,0,1,5.92.35,20.69,20.69,0,0,1,5.25,1.33,14.45,14.45,0,0,1,4.3,2.7,13,13,0,0,1,3.08,4.38H546a1.07,1.07,0,0,1-.21,1.19,1,1,0,0,1-1.33.28,14.81,14.81,0,0,0-7.17-4,39.16,39.16,0,0,0-9.13-1h-1.75q-.7,3.15-1.51,6.3l-1.64,6.44-1.33,5.32-.21.91q-.49,1.82-1.26,4.94t-1.5,6.72q-.74,3.61-1.26,7.25a46.42,46.42,0,0,0-.53,6.58,17.5,17.5,0,0,0,.31,3.54,3.12,3.12,0,0,0,1.16,2.06,2.25,2.25,0,0,0,2,.07,12.34,12.34,0,0,0,3.43-1.89,26,26,0,0,0,4.23-4.45,62.29,62.29,0,0,0,3.92-5.78q1.85-3.08,3.43-6.19T538.43,83h-.07q1-2,1.78-3.46A17.1,17.1,0,0,1,541.72,77a2,2,0,0,1,.77-.07,1.7,1.7,0,0,1,1.61,1.33l-2.52,5.25h.07q-2.24,4.69-4.9,9.87a80.72,80.72,0,0,1-5.71,9.52,36.16,36.16,0,0,1-6.47,7.17,11.17,11.17,0,0,1-7.21,2.84q-6.23,0-8.68-3.08t-2.45-8.61q0-.77,0-1.54t.1-1.61q.21-2.38,1-6.51t1.82-9.06q1.05-4.94,2.31-10.36t2.45-10.46l1-4q-2.38.21-4.55.35t-4.2.14a24.21,24.21,0,0,1-7.49-1,7.23,7.23,0,0,1-4.55-3.92,3.7,3.7,0,0,1-.21-.8,1.37,1.37,0,0,1,.07-.77.75.75,0,0,1,.53-.42,1.33,1.33,0,0,1,1,.31l-.07-.07A17.63,17.63,0,0,0,500,52.74a36.79,36.79,0,0,0,5.14.35q2.52,0,5.39-.25t5.6-.52q1-4.41,1.68-7.74t.84-4.79a10.92,10.92,0,0,0,0-2q-.11-.8-.25-1.51c0-.23-.08-.46-.11-.67a5.37,5.37,0,0,1,0-.59,1.52,1.52,0,0,1,.88-1.29,4.33,4.33,0,0,1,1.72-.31,9.67,9.67,0,0,1,4.38.84,6.34,6.34,0,0,1,2.52,2.21,7.31,7.31,0,0,1,1.08,3.11A18.19,18.19,0,0,1,528.91,43.15Z" transform="translate(-4.81 -7)"/></svg>