<?xml version="1.0" encoding="utf-8"?>
<!-- Svg Vector Icons : http://www.onlinewebfonts.com/icon -->
<!DOCTYPE svg PUBLIC "-//W3C//DTD SVG 1.1//EN" "http://www.w3.org/Graphics/SVG/1.1/DTD/svg11.dtd">
<svg version="1.1" xmlns="http://www.w3.org/2000/svg" xmlns:xlink="http://www.w3.org/1999/xlink" x="0px" y="0px" viewBox="0 0 1000 1000" enable-background="new 0 0 1000 1000" xml:space="preserve">
<metadata> Svg Vector Icons : http://www.onlinewebfonts.com/icon </metadata>
<g><g transform="translate(0.000000,511.000000) scale(0.100000,-0.100000)"><path d="M913.5,4478.6c-384.3-71.8-718-416-789.8-806.7c-31.7-177.4-31.7-6943.2,0-7120.6c73.9-401.2,407.5-734.9,808.8-808.8c179.5-33.8,5572.7-31.7,5710,0c92.9,23.2,183.7,109.8,1653.4,1579.6c1469.7,1469.7,1556.3,1560.5,1579.6,1653.4c31.7,137.3,33.8,4516.9,0,4696.4c-73.9,401.2-407.6,734.9-808.8,808.8C8904.1,4510.3,1069.8,4508.2,913.5,4478.6z M8859.7,3465c35.9-35.9,35.9-3967.8,0-4003.7c-19-19-244.9-25.3-882.7-25.3c-935.5,0-1047.4-10.6-1252.2-120.4c-141.5-76-346.3-280.8-422.3-422.3c-109.8-204.8-120.4-316.7-120.4-1254.3c0-635.6-6.3-861.6-25.3-880.6c-35.9-35.9-4981.4-35.9-5017.3,0c-35.9,35.9-35.9,6670.8,0,6706.7C1175.4,3500.9,8823.8,3500.9,8859.7,3465z"/><path d="M4794.8,3120.8c-335.8-90.8-559.6-335.8-622.9-686.3c-63.3-335.8,133-718,449.8-872.1c519.5-255.5,1100.2,42.2,1205.8,618.7c46.5,242.8-48.6,532.1-232.3,715.9c-118.2,118.3-226,179.5-399.1,223.8C5048.2,3158.8,4940.5,3158.8,4794.8,3120.8z"/><path d="M1979.9,741c-101.4-52.8-190.1-187.9-190.1-291.4c0-103.5,88.7-238.6,190.1-289.3l92.9-48.6h2926.8h2926.8l92.9,48.6c101.4,50.7,190,185.8,190,289.3c0,103.5-88.7,238.6-190,291.4l-92.9,46.5H4999.6H2072.8L1979.9,741z"/><path d="M1979.9-610.5c-101.4-52.8-190.1-187.9-190.1-291.4c0-105.6,88.7-238.6,190.1-291.4l92.9-46.5l1729.5,4.2l1727.4,6.3l52.8,154.2c59.1,179.5,114,293.5,202.7,422.3l61.3,88.7H3960.7H2072.8L1979.9-610.5z"/><path d="M1979.9-1962c-101.4-52.8-190.1-187.9-190.1-291.4c0-103.5,88.7-238.6,190.1-289.3l92.9-48.6h1716.8h1716.8v337.9v337.9H3789.6H2072.8L1979.9-1962z"/></g></g>
</svg>