<svg width="428" height="236" viewBox="0 0 428 236" fill="none" xmlns="http://www.w3.org/2000/svg">
<path d="M427.332 203.665V32.997C409.66 32.997 395.332 18.67 395.332 0.998047H32.654C32.654 18.67 18.327 32.997 0.655029 32.997V203.665C18.327 203.665 32.654 217.993 32.654 235.663H395.332C395.332 217.993 409.66 203.665 427.332 203.665Z" fill="#ED5564"/>
<path d="M395.332 0.998047H32.654C32.654 18.67 18.327 32.997 0.655029 32.997V203.665C18.327 203.665 32.654 217.993 32.654 235.663H395.332C395.332 217.993 409.66 203.665 427.332 203.665V32.997C409.66 32.997 395.332 18.67 395.332 0.998047ZM406.004 186.774C393.723 192.165 383.849 202.04 378.458 214.321H49.529C44.138 202.04 34.263 192.165 21.983 186.774V49.872C34.263 44.497 44.138 34.622 49.529 22.326H378.458C383.849 34.622 393.723 44.497 406.004 49.872V186.774V186.774Z" fill="#DA4453"/>
<path d="M133.823 155.62L102.637 60.981H80.8091L122.996 181.009H143.964L186.666 60.981H165.323L133.823 155.62Z" fill="#FFCE54"/>
<path d="M227.472 60.9849H207.113V181.015H227.472V60.9849Z" fill="#FFCE54"/>
<path d="M340.178 70.6529C333.756 64.2319 324.287 60.9819 312.054 60.9819H259.117V181.009H279.492V133.995H312.022H312.663C324.6 133.995 333.865 130.761 340.178 124.386C346.6 117.917 349.85 108.87 349.85 97.4799C349.849 86.1059 346.599 77.0749 340.178 70.6529ZM324.287 111.386C320.865 114.48 315.271 116.058 307.647 116.058C307.413 116.058 307.178 116.042 306.897 116.042H279.492V78.9179H306.897C314.912 78.9179 320.771 80.5269 324.302 83.6679C327.786 86.7929 329.49 91.3089 329.49 97.4799C329.49 103.667 327.787 108.214 324.287 111.386Z" fill="#FFCE54"/>
</svg>
