<svg version="1.1" id="Capa_1" xmlns="http://www.w3.org/2000/svg" xmlns:xlink="http://www.w3.org/1999/xlink" x="0px" y="0px"
	 viewBox="0 0 512 512" style="enable-background:new 0 0 512 512;" xml:space="preserve">
<g>
	<g>
		<path style="fill: #f0918b;"  d="M361,16.001c-3.418,0-6.871,0.117-10.264,0.346c-0.102,0.007-0.199,0.027-0.3,0.036
			c-3.978,0.348-7.648,2.268-10.205,5.341c-0.063,0.075-0.132,0.142-0.193,0.218L244.287,141.63
			c-4.775,5.969-4.298,14.573,1.106,19.977l79.394,79.394l-79.394,79.394c-2.813,2.813-4.394,6.628-4.394,10.606v57.566
			l-27.838-83.514l53.445-53.445c5.858-5.858,5.858-15.355,0-21.213l-81.718-81.719l52.8-88.001
			c4.003-6.68,2.249-15.433-4.27-19.993c-0.129-0.09-0.246-0.189-0.379-0.276C208.643,24.439,180.274,16.001,151,16.001
			c-83.262,0-151,67.29-151,150c0,37.544,13.939,73.473,39.275,101.195l205.455,223.71c0.005,0.006,0.01,0.011,0.016,0.017
			l0.207,0.225c0.036,0.039,0.077,0.073,0.114,0.112c5.789,6.157,15.628,6.41,21.677,0.198c0.093-0.095,0.189-0.187,0.279-0.285
			c0.008-0.009,0.018-0.016,0.026-0.025L472.75,267.169C498.061,239.474,512,203.545,512,166.001
			C512,83.29,444.262,16.001,361,16.001z M61.395,246.93C41.15,224.777,30,196.036,30,166.001c0-66.168,54.28-120,121-120
			c18.567,0,36.665,4.254,53.087,12.368l-50.949,84.915c-3.542,5.902-2.611,13.457,2.256,18.324l79.393,79.394l-49.393,49.394
			c-4.018,4.017-5.42,9.96-3.624,15.35l37.807,113.422L61.395,246.93z M450.629,246.901L271,442.492V337.214l85.606-85.607
			c5.858-5.858,5.858-15.355,0-21.213L276.1,149.887l83.086-103.856c0.605-0.009,1.211-0.031,1.815-0.031
			c66.72,0,121,53.832,121,120C482,196.037,470.851,224.777,450.629,246.901z"/>
	</g>
</g>
</svg>
