<svg id="Capa_1" data-name="Capa 1" xmlns="http://www.w3.org/2000/svg" viewBox="0 0 512 512"><defs><style>.cls-1{fill:#41978c;}</style></defs><title>tick (1)</title><path class="cls-1" d="M490.67,0H21.33A21.33,21.33,0,0,0,0,21.33V490.67A21.33,21.33,0,0,0,21.33,512H490.67A21.33,21.33,0,0,0,512,490.67V21.33A21.33,21.33,0,0,0,490.67,0ZM469.33,469.33H42.67V42.67H469.33V469.33Z"/><path class="cls-1" d="M217.6,354.13a21.33,21.33,0,0,0,32.15,2.29L399.09,207.09a21.33,21.33,0,0,0-30.17-30.17L237,308.86,187.73,243.2a21.33,21.33,0,0,0-34.13,25.6Z"/></svg>