<svg id="Capa_1" data-name="Capa 1" xmlns="http://www.w3.org/2000/svg" viewBox="0 0 512 512"><defs><style>.cls-1{fill:#f0918b;}</style></defs><title>cross</title><path class="cls-1" d="M105.15,406.85a21.33,21.33,0,0,0,30.17,0L256,286.17,376.68,406.85a21.33,21.33,0,0,0,30.17-30.17L286.17,256,406.85,135.32a21.33,21.33,0,0,0-30.17-30.17L256,225.83,135.32,105.15a21.33,21.33,0,0,0-30.17,30.17L225.83,256,105.15,376.68A21.33,21.33,0,0,0,105.15,406.85Z"/><path class="cls-1" d="M490.67,0H21.33A21.33,21.33,0,0,0,0,21.33V490.67A21.33,21.33,0,0,0,21.33,512H490.67A21.33,21.33,0,0,0,512,490.67V21.33A21.33,21.33,0,0,0,490.67,0ZM469.33,469.33H42.67V42.67H469.33V469.33Z"/></svg>